<svg width="40" height="40" viewBox="0 0 40 40" fill="none"
     xmlns="http://www.w3.org/2000/svg">
  <g clip-path="url(#clip0_14307_9490)">
    <path d="M17.8378 20.9221C22.0014 20.9221 25.3767 19.0905 25.3767 16.8311C25.3767 14.5718 22.0014 12.7402 17.8378 12.7402C13.6741 12.7402 10.2988 14.5718 10.2988 16.8311C10.2988 19.0905 13.6741 20.9221 17.8378 20.9221Z" fill="url(#paint0_radial_14307_9490)"/>
    <path fill-rule="evenodd" clip-rule="evenodd" d="M12.6178 14.1443C11.2849 14.8676 10.532 15.8281 10.532 16.8315C10.532 17.8349 11.2849 18.7954 12.6178 19.5188C13.9417 20.2371 15.7866 20.6887 17.8372 20.6887C19.8878 20.6887 21.7327 20.2371 23.0565 19.5188C24.3895 18.7954 25.1424 17.8349 25.1424 16.8315C25.1424 15.8281 24.3895 14.8676 23.0565 14.1443C21.7327 13.4259 19.8878 12.9744 17.8372 12.9744C15.7866 12.9744 13.9417 13.4259 12.6178 14.1443ZM12.3948 13.7333C13.7995 12.9711 15.7241 12.5068 17.8372 12.5068C19.9502 12.5068 21.8748 12.9711 23.2795 13.7333C24.6751 14.4906 25.6099 15.5756 25.6099 16.8315C25.6099 18.0875 24.6751 19.1724 23.2795 19.9297C21.8748 20.6919 19.9502 21.1562 17.8372 21.1562C15.7241 21.1562 13.7995 20.6919 12.3948 19.9297C10.9992 19.1724 10.0645 18.0875 10.0645 16.8315C10.0645 15.5756 10.9992 14.4906 12.3948 13.7333Z" fill="#DD507B"/>
    <path d="M13.0278 20.7663C12.219 20.7663 10.2997 20.2123 9.52481 19.9108C9.25247 19.8056 8.78494 19.5636 8.29052 19.3076C7.0352 18.6589 6.10013 18.1972 5.53091 18.1575C4.9465 17.9997 2.70117 15.1419 2.70117 13.5044C2.70117 12.1883 3.29494 11.1819 4.46728 10.5122C4.62741 10.421 4.73026 10.4011 4.78754 10.4011C4.92896 10.4011 5.00961 10.5695 5.03767 10.6419C5.10896 10.8266 5.28546 10.9411 5.47364 10.9411C5.5239 10.9411 5.57416 10.933 5.62325 10.9166C5.78689 10.8617 5.90026 10.7237 5.93182 10.5648C5.94468 10.5624 5.95637 10.5601 5.96805 10.5578C6.04286 10.5426 6.12351 10.5262 6.20299 10.4993C6.37247 10.5963 6.65299 10.7261 7.11702 10.7261C7.20702 10.7261 7.30286 10.7214 7.39987 10.7109C8.15961 10.6349 8.51611 10.1545 8.72883 9.86815C8.76624 9.81789 8.81416 9.75361 8.84922 9.71387C8.9065 9.74776 8.99767 9.8214 9.06195 9.87283C9.34013 10.0972 9.76091 10.4362 10.4271 10.4362C10.5662 10.4362 10.7112 10.421 10.8584 10.3918C10.89 10.3859 10.9169 10.3813 10.9403 10.3778C10.9403 10.3801 10.9403 10.3813 10.9403 10.3824C10.9262 10.9809 11.1717 11.3011 11.6708 11.335C11.6907 11.3362 11.7105 11.3374 11.7327 11.3374C11.9338 11.3374 12.2213 11.2766 12.6573 11.1831C13.5316 10.9972 14.9949 10.6852 16.7786 10.6852C18.5622 10.6852 20.1483 10.9739 21.7122 11.5419C22.1458 11.6997 22.3621 12.0387 22.4836 12.3169C22.2814 12.4267 21.9764 12.5787 21.6958 12.7189C19.1045 14.0117 16.3169 15.5417 16.034 17.3417C15.6962 19.4982 13.7221 20.7289 13.1014 20.7628C13.0792 20.764 13.0547 20.7652 13.0301 20.7652L13.0278 20.7663Z" fill="url(#paint1_radial_14307_9490)"/>
    <path d="M8.93373 10.3689C9.25165 10.6109 9.72854 10.9054 10.4263 10.9054C10.4591 10.9054 10.4918 10.9054 10.5257 10.9031C10.7232 11.6733 11.4035 11.7867 11.6384 11.8031C11.6676 11.8054 11.698 11.8066 11.7319 11.8066C11.982 11.8066 12.2731 11.7446 12.7535 11.6418C13.6102 11.4594 15.042 11.1544 16.7766 11.1544C18.4328 11.1544 20.0388 11.4325 21.5501 11.9831C21.653 12.0205 21.7371 12.0742 21.8084 12.1409C21.702 12.1946 21.591 12.2496 21.4846 12.3033C18.7893 13.6475 15.8871 15.2523 15.5704 17.272C15.2676 19.1983 13.4781 20.2619 13.0737 20.2993C13.0597 20.2993 13.0445 20.2993 13.0281 20.2993C12.3339 20.2993 10.5268 19.8002 9.69464 19.4764C9.44568 19.3794 8.98867 19.1433 8.50594 18.8944C7.22607 18.234 6.31789 17.7851 5.66451 17.7033C5.43776 17.5619 4.83698 16.9716 4.20113 15.9922C3.56646 15.0138 3.17139 14.0612 3.17139 13.5061C3.17139 12.3863 3.67165 11.5261 4.65815 10.9451C4.81828 11.2666 5.14672 11.4618 5.49503 11.4618C5.59555 11.4618 5.69724 11.4454 5.79776 11.4115C5.9988 11.3425 6.16126 11.2128 6.27113 11.048C6.47802 11.1275 6.7562 11.1941 7.11971 11.1941C7.2249 11.1941 7.33594 11.1883 7.44932 11.1766C8.22425 11.0994 8.66724 10.6938 8.93724 10.3677M8.82854 9.23047C8.81334 9.23047 8.79815 9.23047 8.78295 9.23281C8.34815 9.28307 8.28854 10.1527 7.35698 10.2462C7.27165 10.2544 7.19217 10.259 7.11971 10.259C6.51191 10.259 6.35529 9.98787 6.21737 9.98787C6.19399 9.98787 6.17061 9.99605 6.14607 10.0148C5.96724 10.1492 5.35828 10.0685 5.47633 10.4753C5.48802 10.5068 5.49386 10.5267 5.49386 10.5267C5.48685 10.5092 5.481 10.4916 5.47633 10.4753C5.42139 10.3315 5.22854 9.93527 4.79022 9.93527C4.63711 9.93527 4.45477 9.9832 4.23737 10.1071C3.26022 10.6658 2.23633 11.6897 2.23633 13.5049C2.23633 15.3201 4.70256 18.5776 5.49386 18.6244C6.28516 18.6711 8.5188 20.0211 9.35685 20.3461C10.1645 20.6605 12.1375 21.2332 13.0293 21.2332C13.0632 21.2332 13.0959 21.2332 13.1263 21.2309C13.9644 21.1841 16.1232 19.7885 16.4949 17.4158C16.8666 15.0431 23.1327 12.7603 23.0404 12.481C22.9468 12.2016 22.7131 11.4092 21.8715 11.1041C20.0259 10.4332 18.2844 10.2193 16.7789 10.2193C14.1479 10.2193 12.2345 10.8715 11.7342 10.8715C11.7237 10.8715 11.7132 10.8715 11.7039 10.8715C11.0715 10.8294 11.7728 9.90488 11.0446 9.90488C10.9687 9.90488 10.8787 9.91424 10.7688 9.93644C10.6461 9.96099 10.5339 9.97151 10.4298 9.97151C9.56958 9.97151 9.27035 9.23281 8.82854 9.23164V9.23047Z" fill="#FFE83E"/>
    <path fill-rule="evenodd" clip-rule="evenodd" d="M9.67103 9.46181C9.92438 9.64966 10.2239 9.80565 10.7192 9.70658C11.0198 9.64646 11.2776 9.65109 11.4534 9.79768C11.6318 9.94644 11.6402 10.1725 11.6408 10.2975C11.641 10.333 11.6401 10.3686 11.6394 10.4003L11.6394 10.4015C11.6386 10.4347 11.6379 10.464 11.638 10.4921C11.6383 10.5504 11.6422 10.587 11.6487 10.6107C11.6508 10.6185 11.6527 10.6229 11.6538 10.6252C11.6592 10.628 11.6765 10.635 11.7158 10.6376C11.7672 10.6411 11.8804 10.6273 12.0819 10.5882C12.2038 10.5645 12.3445 10.5345 12.5062 10.5001C12.6009 10.4799 12.7028 10.4582 12.8124 10.4353C13.4001 10.3126 14.1764 10.1632 15.0944 10.0714C16.9306 9.88781 19.3355 9.93465 21.9488 10.8849C22.8725 11.2199 23.15 12.0714 23.249 12.3753C23.2528 12.3871 23.2564 12.3981 23.2597 12.4082C23.2994 12.5282 23.2382 12.6222 23.2172 12.6511C23.1898 12.6887 23.1559 12.7185 23.1294 12.7396C23.074 12.7839 22.9984 12.8311 22.9148 12.8791C22.7446 12.9769 22.4997 13.1013 22.2109 13.2458C22.1449 13.2789 22.0763 13.3131 22.0054 13.3485C21.4514 13.6249 20.7583 13.9707 20.0538 14.3676C19.2582 14.8158 18.4587 15.3234 17.8378 15.8604C17.2087 16.4044 16.8028 16.9452 16.7233 17.4525C16.5276 18.7015 15.8623 19.6884 15.1429 20.3666C14.7828 20.706 14.406 20.9713 14.0612 21.1558C13.7216 21.3376 13.3946 21.4508 13.1365 21.4648C12.6773 21.4898 11.9113 21.3399 11.1819 21.1545C10.4423 20.9665 9.69977 20.7313 9.26978 20.5645C8.96168 20.4451 8.47261 20.1927 7.94734 19.9216C7.73432 19.8117 7.51535 19.6987 7.30008 19.5902C6.92034 19.3989 6.54699 19.2187 6.22143 19.0839C5.88751 18.9456 5.63205 18.8674 5.47751 18.8583C5.31358 18.8486 5.14496 18.7625 4.99293 18.6594C4.83364 18.5514 4.66102 18.4025 4.4837 18.2263C4.12847 17.8733 3.7368 17.393 3.37278 16.8602C3.00854 16.3271 2.66768 15.7353 2.41703 15.1576C2.16811 14.5839 2 14.0057 2 13.5054C2 11.5813 3.09353 10.4909 4.11877 9.90469C4.39227 9.74831 4.6397 9.68657 4.86194 9.70428C5.08622 9.72216 5.25976 9.81899 5.38669 9.93433C5.40859 9.95423 5.42915 9.9747 5.44843 9.99548C5.50349 9.96246 5.55953 9.94121 5.60535 9.92646C5.68114 9.90206 5.76852 9.88426 5.83655 9.8704C5.85487 9.86667 5.87178 9.86323 5.88668 9.86002C5.96857 9.84238 5.99674 9.83044 6.00153 9.82841C6.00217 9.82813 6.00227 9.82813 6.00227 9.82813L6.14234 10.0153L6.00151 9.8287C6.05534 9.78808 6.12201 9.75828 6.20046 9.75526C6.27386 9.75242 6.33465 9.77414 6.37587 9.79297C6.41463 9.81067 6.45277 9.83395 6.48086 9.8511L6.48733 9.85505C6.51756 9.8735 6.5457 9.89068 6.57813 9.90809C6.69995 9.97348 6.90931 10.0574 7.32873 10.0153C7.70543 9.97748 7.90157 9.79091 8.06782 9.58019C8.10097 9.53818 8.13138 9.49718 8.16297 9.4546C8.17318 9.44084 8.18351 9.42691 8.19409 9.41273C8.23558 9.35717 8.28078 9.298 8.32928 9.24427C8.4255 9.13767 8.5592 9.02452 8.7511 9.0023M5.50136 10.5232C5.71606 10.4618 5.71599 10.4616 5.71599 10.4616L5.71591 10.4613L5.71573 10.4607L5.7153 10.4592L5.71408 10.4551C5.71311 10.4519 5.71183 10.4478 5.71021 10.4429C5.707 10.433 5.70245 10.4197 5.69645 10.4036C5.69574 10.4017 5.695 10.3997 5.69425 10.3977C5.69394 10.3964 5.69366 10.3951 5.69341 10.3939C5.70326 10.3885 5.7204 10.3806 5.74864 10.3715C5.79746 10.3558 5.84874 10.3453 5.91132 10.3325C5.93426 10.3278 5.95872 10.3228 5.98514 10.3171C6.04544 10.3041 6.13848 10.2837 6.22134 10.2405C6.22666 10.2437 6.23264 10.2473 6.23937 10.2514C6.24135 10.2526 6.24337 10.2539 6.24544 10.2552C6.27457 10.2729 6.31276 10.2963 6.357 10.32C6.5607 10.4294 6.86329 10.5319 7.37543 10.4805C7.93029 10.4248 8.22973 10.1298 8.43487 9.86977C8.47276 9.82175 8.50887 9.77307 8.54125 9.72941C8.55075 9.7166 8.55993 9.70423 8.56874 9.69243C8.60945 9.63789 8.64356 9.59386 8.67634 9.55754C8.74268 9.48405 8.77945 9.46967 8.80489 9.46673C8.85342 9.4611 8.9125 9.47558 9.015 9.54484C9.0659 9.57924 9.11969 9.62163 9.1836 9.6731C9.19155 9.67949 9.19965 9.68603 9.20789 9.69268C9.26372 9.73774 9.32618 9.78814 9.39257 9.83737C9.71107 10.0735 10.1433 10.2986 10.8109 10.165C10.9436 10.1385 11.0317 10.1345 11.0879 10.14C11.1152 10.1426 11.1323 10.1472 11.142 10.1508C11.1468 10.1526 11.1498 10.1542 11.1515 10.1551C11.1532 10.1561 11.154 10.1567 11.154 10.1567L11.1542 10.1571C11.1544 10.1573 11.1546 10.1577 11.1549 10.1582C11.1563 10.1605 11.1592 10.1662 11.1623 10.1778C11.1691 10.2033 11.173 10.2412 11.1733 10.2996C11.1734 10.328 11.1727 10.3573 11.172 10.3905L11.1719 10.3923C11.1712 10.4239 11.1704 10.4591 11.1705 10.4941C11.1708 10.5636 11.1747 10.6497 11.1977 10.7339C11.2218 10.8221 11.2694 10.9174 11.3621 10.9909C11.4534 11.0633 11.5652 11.0961 11.6845 11.1041C11.8075 11.1124 11.9822 11.0838 12.171 11.0471C12.2967 11.0227 12.4447 10.9912 12.61 10.956C12.704 10.936 12.8037 10.9147 12.908 10.893C13.4888 10.7717 14.2467 10.626 15.1409 10.5366C16.929 10.3578 19.2595 10.4045 21.7891 11.3243L21.7893 11.3244C22.4163 11.5517 22.6559 12.0924 22.7707 12.4205C22.7466 12.4358 22.7171 12.4535 22.6818 12.4738C22.5255 12.5636 22.2931 12.6819 22.0017 12.8277C21.9361 12.8605 21.8678 12.8946 21.797 12.9299C21.2436 13.206 20.5397 13.5572 19.8243 13.9602C19.0185 14.4142 18.1876 14.9397 17.5319 15.5067C16.8844 16.0668 16.3678 16.7011 16.2614 17.3801C16.0854 18.5038 15.4849 19.4017 14.8221 20.0264C14.4911 20.3385 14.1477 20.5793 13.8406 20.7436C13.5282 20.9108 13.2714 20.9892 13.1111 20.998C12.7333 21.0185 12.0336 20.8886 11.297 20.7014C10.5706 20.5168 9.84685 20.2868 9.43879 20.1286C9.15528 20.0187 8.70503 19.7863 8.19351 19.5223C7.9743 19.4092 7.74385 19.2903 7.51044 19.1727C7.1281 18.98 6.7423 18.7936 6.4003 18.652C6.06668 18.5138 5.74619 18.4058 5.50509 18.3915C5.47119 18.3895 5.38964 18.3636 5.25535 18.2725C5.1283 18.1863 4.97843 18.0588 4.81326 17.8947C4.48352 17.567 4.11026 17.1108 3.75881 16.5964C3.40758 16.0824 3.08243 15.5166 2.84593 14.9715C2.6077 14.4224 2.46753 13.9127 2.46753 13.5054C2.46753 11.7991 3.4218 10.8418 4.35084 10.3106C4.56591 10.1876 4.71983 10.162 4.82479 10.1703C4.92771 10.1785 5.00722 10.2212 5.07227 10.2803C5.13984 10.3417 5.18968 10.4195 5.22331 10.4867C5.2349 10.5099 5.24403 10.5307 5.25091 10.5477C5.25766 10.5701 5.26554 10.5924 5.2744 10.6144C5.31617 10.7183 5.42576 10.778 5.5357 10.7567C5.64565 10.7355 5.72506 10.6392 5.72506 10.5272V10.5261C5.72506 10.5043 5.72203 10.4827 5.71606 10.4618L5.50136 10.5232ZM5.69197 10.3777C5.69197 10.3777 5.69213 10.379 5.6917 10.381C5.69163 10.3787 5.69197 10.3777 5.69197 10.3777ZM11.6544 10.6263C11.6549 10.6268 11.6551 10.6272 11.6551 10.6272C11.6551 10.6272 11.6548 10.627 11.6544 10.6263ZM9.67103 9.46181C9.61292 9.41872 9.55844 9.37477 9.50212 9.32934ZM9.50212 9.32934C9.49374 9.32258 9.48532 9.31578 9.47684 9.30895ZM9.47684 9.30895C9.41353 9.25797 9.34584 9.20414 9.27677 9.15747ZM9.27677 9.15747C9.13935 9.06461 8.96434 8.97759 8.7511 9.0023Z" fill="#DD507B"/>
    <path d="M16.6162 15.2043C20.9245 15.2043 24.417 13.9415 24.417 12.3839C24.417 10.8262 20.9245 9.56348 16.6162 9.56348C12.308 9.56348 8.81543 10.8262 8.81543 12.3839C8.81543 13.9415 12.308 15.2043 16.6162 15.2043Z" fill="url(#paint2_radial_14307_9490)"/>
    <path d="M16.8443 12.8571C16.6445 14.0014 15.3248 18.5844 14.6235 19.4025C13.9935 20.1377 11.6582 18.3132 10.5326 18.1168C9.10783 17.869 7.57433 16.9024 6.55861 16.3636C4.9842 15.5279 4.81004 12.8571 4.69433 13.874C4.5716 14.961 6.09809 10.6141 9.71446 11.3376C11.4677 11.6883 17.133 11.1985 16.8443 12.8571Z" fill="url(#paint3_radial_14307_9490)"/>
    <path d="M33.9092 27.1169C34.4574 21.1991 29.3718 14.3111 28.4157 12.974C28.3023 12.815 28.3105 11.7 28.2988 11.6883C28.2638 11.5796 25.9612 9.58438 24.2079 11.5714C24.0034 11.3002 22.3647 12.3674 22.4547 12.3896C22.9222 12.5065 19.182 9.70127 18.2469 12.8571C17.9407 13.8904 17.5105 14.5496 17.4287 15.6623C17.7794 30.6233 27.0131 26.2987 27.0131 26.2987C27.0131 26.2987 30.4179 32.2141 30.6365 31.9091C32.3898 29.4545 29.117 26.2987 29.117 26.2987C30.4214 28.1314 34.0203 32.4023 35.4287 32.6104C35.4287 32.6104 33.2079 29.3376 32.0391 27.1169C33.5153 27.6393 36.3462 31.9336 38.0001 30.3896C38.0001 30.3896 33.8672 27.5762 33.9092 27.1169Z" fill="url(#paint4_radial_14307_9490)"/>
    <path fill-rule="evenodd" clip-rule="evenodd" d="M21.1371 19.4045C21.265 19.3872 21.3827 19.4769 21.4 19.6048C21.5174 20.4737 21.6176 20.7022 21.804 20.8718C21.9056 20.9642 22.0381 21.0438 22.2512 21.1719C22.263 21.179 22.2751 21.1863 22.2875 21.1937C22.5153 21.3307 22.8066 21.5091 23.1783 21.7864L23.1785 21.7866C23.2252 21.8215 23.3023 21.8752 23.4032 21.9453C23.7882 22.2132 24.5197 22.722 25.2314 23.3523C25.6828 23.7522 26.1355 24.2084 26.4993 24.6957C26.8619 25.1814 27.1463 25.7114 27.2427 26.2579C27.2652 26.385 27.1803 26.5062 27.0531 26.5287C26.926 26.5511 26.8047 26.4662 26.7823 26.3391C26.7034 25.8921 26.4641 25.4301 26.1247 24.9754C25.7865 24.5225 25.3588 24.0898 24.9214 23.7023C24.2359 23.0952 23.549 22.6169 23.1556 22.343C23.0441 22.2653 22.9562 22.2041 22.8985 22.161C22.5451 21.8973 22.269 21.7281 22.0466 21.5944C22.0287 21.5836 22.011 21.573 21.9935 21.5625C21.7994 21.4461 21.6269 21.3427 21.4894 21.2176C21.1615 20.9194 21.0519 20.5203 20.9367 19.6674C20.9194 19.5395 21.0091 19.4218 21.1371 19.4045Z" fill="#DD507B"/>
    <path fill-rule="evenodd" clip-rule="evenodd" d="M22.7436 18.8267C22.8681 18.7927 22.9967 18.8661 23.0306 18.9907C23.0389 19.0211 23.0647 19.0789 23.1215 19.1693C23.1763 19.2563 23.252 19.3612 23.348 19.4833C23.5401 19.7275 23.8039 20.0284 24.1215 20.3743C24.5652 20.8575 25.1058 21.42 25.69 22.0278C25.9428 22.2908 26.2037 22.5624 26.4685 22.8396C27.3428 23.755 28.2557 24.7298 29.0385 25.6525C29.8183 26.5717 30.4814 27.4534 30.8454 28.1814C30.9031 28.2969 30.8563 28.4373 30.7408 28.495C30.6254 28.5528 30.4849 28.506 30.4272 28.3905C30.0899 27.7159 29.4583 26.87 28.682 25.9549C27.9086 25.0433 27.0037 24.0769 26.1304 23.1625C25.8686 22.8884 25.6093 22.6186 25.3574 22.3565C24.7712 21.7466 24.2246 21.1778 23.7772 20.6905C23.4571 20.342 23.1837 20.0307 22.9805 19.7724C22.879 19.6432 22.7925 19.5243 22.7258 19.4183C22.6612 19.3156 22.6062 19.2113 22.5796 19.1137C22.5456 18.9892 22.619 18.8606 22.7436 18.8267Z" fill="#DD507B"/>
    <path fill-rule="evenodd" clip-rule="evenodd" d="M28.1993 16.3918C28.2485 16.2725 28.3852 16.2156 28.5045 16.2648C28.9915 16.4654 29.2367 16.9104 29.4213 17.3181C29.466 17.4167 29.5046 17.5073 29.5422 17.5955C29.59 17.7075 29.6361 17.8156 29.6908 17.9314C29.7826 18.1257 29.8788 18.2957 29.996 18.4331C31.3763 20.0535 32.1467 22.2886 32.5732 24.0977C32.7873 25.0057 32.9164 25.8136 32.992 26.3949C33.0299 26.6857 33.0544 26.92 33.0695 27.0821C33.077 27.1632 33.0822 27.2263 33.0855 27.2693C33.0872 27.2908 33.0884 27.3073 33.0891 27.3186L33.09 27.3316L33.0902 27.335L33.0903 27.3363C33.0903 27.3364 33.0903 27.3364 32.857 27.351L33.0903 27.3364C33.0984 27.4653 33.0005 27.5763 32.8716 27.5843C32.7428 27.5924 32.6318 27.4945 32.6237 27.3656M32.6237 27.3656L32.6237 27.365L32.6235 27.3623L32.6227 27.3511C32.622 27.3409 32.6209 27.3255 32.6194 27.3052C32.6162 27.2645 32.6112 27.2039 32.6039 27.1254C32.5893 26.9684 32.5655 26.7398 32.5284 26.4553C32.4543 25.886 32.3278 25.0941 32.1181 24.205C31.6973 22.42 30.9481 20.2719 29.6402 18.7364M28.1993 16.3918C28.1501 16.5112 28.207 16.6478 28.3264 16.697ZM28.3264 16.697C28.6308 16.8225 28.8133 17.1087 28.9954 17.5109ZM28.9954 17.5109C29.0296 17.5864 29.0665 17.6724 29.1046 17.7614ZM29.1046 17.7614C29.158 17.886 29.2138 18.0162 29.268 18.131ZM29.268 18.131C29.3669 18.3403 29.4839 18.5531 29.6402 18.7364Z" fill="#DD507B"/>
    <path d="M23.6631 18.9589C25.0096 19.4159 30.745 24.3226 31.1039 27.1173C31.4627 29.912 28.2987 31.7926 28.2987 31.7926C28.2987 31.7926 31.79 30.8973 32.6233 28.403C33.4322 25.9835 31.0209 22.8897 29.4675 21.0394C27.9141 19.1891 25.961 17.416 25.961 17.416" fill="url(#paint5_radial_14307_9490)"/>
    <path fill-rule="evenodd" clip-rule="evenodd" d="M25.7884 17.2583C25.8751 17.1627 26.023 17.1555 26.1186 17.2423L25.9614 17.4154L25.8043 17.5885C25.7087 17.5017 25.7016 17.3539 25.7884 17.2583ZM32.8455 28.4765C32.4009 29.8073 31.2566 30.6919 30.2613 31.2376C29.7596 31.5126 29.2856 31.7072 28.937 31.833C28.7626 31.896 28.619 31.942 28.5184 31.9725C28.4681 31.9877 28.4285 31.999 28.4011 32.0066C28.3875 32.0104 28.3768 32.0133 28.3694 32.0152L28.3608 32.0175L28.3584 32.0182L28.3573 32.0184C28.3573 32.0184 28.3572 32.0185 28.2991 31.792L28.3572 32.0185C28.2445 32.0474 28.1278 31.9891 28.0832 31.8817C28.0386 31.7744 28.0797 31.6506 28.1795 31.5912M28.1797 31.5911L28.1808 31.5904L28.1865 31.587C28.1917 31.5838 28.1997 31.5788 28.2105 31.5721C28.232 31.5587 28.2641 31.5382 28.3052 31.5109C28.3875 31.4564 28.5057 31.3748 28.6469 31.268C28.9298 31.0542 29.3025 30.7413 29.6634 30.345C30.3897 29.5473 31.0391 28.4448 30.8724 27.1465C30.7903 26.5064 30.3924 25.7144 29.7889 24.8623C29.19 24.0167 28.4072 23.1375 27.5897 22.3269C26.7727 21.5167 25.9254 20.7795 25.2005 20.2176C24.838 19.9366 24.508 19.7009 24.2291 19.5223C23.9461 19.3411 23.7288 19.2273 23.5884 19.1796C23.4661 19.1381 23.4007 19.0054 23.4422 18.8831C23.4836 18.7609 23.6164 18.6954 23.7387 18.7369C23.9349 18.8035 24.1913 18.943 24.4812 19.1285C24.775 19.3167 25.1168 19.5611 25.487 19.8481C26.2274 20.422 27.0889 21.1719 27.9189 21.9949C28.7484 22.8174 29.5509 23.7174 30.1704 24.5921C30.7853 25.4603 31.2389 26.3297 31.3362 27.0869C31.5283 28.5833 30.7751 29.8185 30.0091 30.6598C29.89 30.7906 29.7698 30.9127 29.6518 31.0257C29.7769 30.9653 29.9058 30.8993 30.0365 30.8276C30.9952 30.302 32.0133 29.4918 32.4021 28.3283C32.775 27.2128 32.413 25.9088 31.7253 24.617C31.0418 23.3331 30.0646 22.113 29.2889 21.1891C28.5187 20.2717 27.6478 19.3716 26.9678 18.6995C26.6282 18.3638 26.3369 18.0857 26.1307 17.8916C26.0276 17.7946 25.9458 17.7186 25.8898 17.667C25.8619 17.6412 25.8404 17.6214 25.8259 17.6082L25.8096 17.5933L25.8043 17.5885L25.9614 17.4154C26.1186 17.2423 26.1185 17.2423 26.1186 17.2423L26.1187 17.2424L26.1246 17.2478L26.1416 17.2633C26.1565 17.277 26.1785 17.2972 26.207 17.3234C26.2639 17.376 26.3468 17.453 26.4511 17.5511C26.6596 17.7473 26.9537 18.0281 27.2965 18.367C27.9815 19.0441 28.8638 19.9556 29.647 20.8885C30.4247 21.8148 31.4297 23.0668 32.138 24.3973C32.8421 25.7198 33.2814 27.1726 32.8455 28.4765" fill="#DD507B"/>
    <path d="M23.9736 18C23.6931 19.3944 24.6597 25.5203 26.8957 27.2338C29.1316 28.9473 32.6229 31.9091 32.6229 31.9091C32.6229 31.9091 30.4022 31.2078 27.0126 29.8052C24.655 28.8292 23.3892 26.4156 22.4541 25.013L20.584 18.9351" fill="url(#paint6_radial_14307_9490)"/>
    <path fill-rule="evenodd" clip-rule="evenodd" d="M24.0201 17.7712C24.1467 17.7967 24.2287 17.9199 24.2032 18.0465C24.1407 18.3571 24.1443 18.9702 24.2302 19.7654C24.3152 20.5516 24.4776 21.4908 24.718 22.4403C24.9585 23.3903 25.2756 24.3446 25.6676 25.1637C26.0616 25.9867 26.5217 26.6528 27.0383 27.0486C28.16 27.9082 29.5947 29.0795 30.7474 30.0344C31.324 30.5121 31.8308 30.9363 32.1933 31.241C32.3746 31.3933 32.5199 31.5159 32.6198 31.6003C32.6698 31.6425 32.7085 31.6752 32.7347 31.6974L32.7744 31.7311L32.7746 31.7312C32.7746 31.7312 32.7746 31.7312 32.6234 31.9095C32.553 32.1324 32.553 32.1324 32.5529 32.1324L32.5511 32.1318L32.546 32.1302L32.5263 32.1239C32.5088 32.1183 32.483 32.11 32.449 32.0989C32.381 32.0768 32.2803 32.0437 32.149 31.9996C31.8865 31.9115 31.5015 31.7795 31.0105 31.6036C30.0285 31.2518 28.6223 30.7245 26.9236 30.0216C25.6952 29.5131 24.7599 28.6336 24.0185 27.7164C23.4778 27.0475 23.0295 26.3433 22.6488 25.7452C22.5107 25.5283 22.3815 25.3253 22.26 25.1431C22.2475 25.1243 22.2378 25.1037 22.2311 25.0821L20.361 19.0042C20.323 18.8808 20.3923 18.75 20.5157 18.712C20.6391 18.6741 20.7699 18.7433 20.8078 18.8667L22.668 24.9122C22.7929 25.1004 22.9217 25.3027 23.0567 25.5148C23.4339 26.1074 23.8595 26.7759 24.3821 27.4225C25.0969 28.3068 25.9732 29.1222 27.1024 29.5896C28.7933 30.2893 30.1923 30.8139 31.1681 31.1635C31.294 31.2085 31.4127 31.2507 31.5242 31.2899C31.2163 31.0321 30.8496 30.7262 30.4491 30.3944C29.2971 29.4401 27.8682 28.2736 26.7539 27.4197C26.1525 26.9588 25.6533 26.2166 25.2459 25.3655C24.8366 24.5105 24.5103 23.5249 24.2648 22.555C24.019 21.5845 23.8527 20.6237 23.7654 19.8156C23.6791 19.0165 23.6671 18.341 23.7448 17.9543C23.7703 17.8277 23.8936 17.7458 24.0201 17.7712ZM32.6234 31.9095L32.5529 32.1324C32.6591 32.1659 32.7742 32.12 32.828 32.0225C32.8818 31.9251 32.8594 31.8032 32.7746 31.7312L32.6234 31.9095Z" fill="#DD507B"/>
    <path fill-rule="evenodd" clip-rule="evenodd" d="M22.5915 12.2005C22.5916 12.2006 22.5916 12.2006 22.4541 12.3897C22.6114 12.2167 22.6114 12.2167 22.6114 12.2168L22.6115 12.2168L22.6118 12.2171L22.6127 12.2179L22.6159 12.2208C22.6186 12.2233 22.6225 12.2269 22.6275 12.2315C22.6375 12.2408 22.6518 12.2542 22.67 12.2714C22.7062 12.3057 22.7575 12.3551 22.8185 12.4161C22.9402 12.5379 23.1023 12.7074 23.2614 12.8968C23.4194 13.0849 23.5803 13.2994 23.6951 13.5109C23.804 13.7115 23.8985 13.9574 23.8522 14.1888C23.8269 14.3154 23.7037 14.3975 23.5771 14.3721C23.4505 14.3468 23.3684 14.2237 23.3937 14.0971C23.4059 14.0362 23.3835 13.9169 23.2842 13.734C23.1908 13.5619 23.0522 13.3747 22.9034 13.1975C22.7557 13.0216 22.6036 12.8624 22.4879 12.7467C22.4302 12.689 22.382 12.6426 22.3484 12.6107C22.3315 12.5948 22.3184 12.5825 22.3096 12.5744C22.3084 12.5733 22.3074 12.5723 22.3063 12.5713C22.3022 12.5684 22.2969 12.5646 22.2904 12.56C22.2724 12.5473 22.2455 12.5286 22.2107 12.505C22.1411 12.4577 22.0403 12.391 21.9166 12.3145C21.6684 12.161 21.332 11.97 20.9736 11.8154C20.6116 11.6592 20.2451 11.5481 19.9321 11.5385C19.6257 11.5291 19.4009 11.6155 19.256 11.8224C19.0629 12.0984 18.8389 12.3489 18.6242 12.5892C18.6007 12.6154 18.5774 12.6415 18.5542 12.6676C18.3151 12.9359 18.0895 13.197 17.9037 13.4929C17.5416 14.0696 17.3179 14.7983 17.5409 15.9693C17.5651 16.0961 17.4818 16.2185 17.355 16.2427C17.2282 16.2668 17.1058 16.1836 17.0816 16.0568C16.8372 14.7733 17.081 13.924 17.5078 13.2443C17.7165 12.9119 17.9658 12.6251 18.2051 12.3565C18.2282 12.3306 18.2512 12.3048 18.2741 12.2793C18.4916 12.0358 18.6967 11.8062 18.873 11.5543C19.1372 11.1769 19.5407 11.0587 19.9465 11.0712C20.3458 11.0835 20.7755 11.2208 21.1587 11.3861C21.5455 11.5529 21.9031 11.7564 22.1626 11.9169C22.2927 11.9975 22.3992 12.0678 22.4734 12.1182C22.5105 12.1435 22.5397 12.1637 22.5597 12.1779C22.5697 12.1849 22.5775 12.1905 22.5829 12.1943L22.5891 12.1988L22.5908 12.2L22.5913 12.2004L22.5915 12.2005ZM22.4541 12.3897L22.6114 12.2167C22.6051 12.211 22.5985 12.2056 22.5916 12.2006L22.4541 12.3897Z" fill="#DD507B"/>
    <path d="M23.3864 14.9166C23.2146 16.1041 22.2526 17.093 20.8524 17.093C19.4521 17.093 18.3184 16.1182 18.3184 14.9166C18.3184 13.715 18.5755 12.7402 20.8524 12.7402C22.2515 12.7402 23.46 14.4023 23.3864 14.9166Z" fill="#DD507B"/>
    <path d="M22.7062 14.8175C22.5799 15.7257 21.8775 16.4808 20.8536 16.4808C19.8297 16.4808 19.001 15.7362 19.001 14.8175C19.001 13.8988 19.1892 13.1543 20.8536 13.1543C21.8763 13.1543 22.7599 14.4248 22.7062 14.8175Z" fill="url(#paint7_radial_14307_9490)"/>
    <path d="M22.0828 14.9647C21.9589 15.7607 21.198 16.0155 20.6884 15.3609C20.2536 14.8022 19.7978 16.0868 19.8048 14.6117C19.8083 13.8122 20.5388 13.2489 21.1676 13.347C21.7965 13.4452 22.2067 14.1687 22.0828 14.9659V14.9647Z" fill="#030107"/>
    <path fill-rule="evenodd" clip-rule="evenodd" d="M21.1401 13.5199C20.6216 13.4389 19.9827 13.9156 19.9796 14.6121L19.9796 14.6122C19.9788 14.793 19.9851 14.9264 19.9965 15.0236C20.0046 15.0914 20.0145 15.1357 20.0232 15.1636C20.0421 15.1557 20.0593 15.1473 20.0808 15.1369C20.0977 15.1286 20.1171 15.1192 20.142 15.1077C20.1937 15.0839 20.2601 15.0561 20.3342 15.0427C20.4109 15.0288 20.4984 15.0297 20.5889 15.0653C20.6787 15.1005 20.7573 15.1642 20.8263 15.2528M19.629 14.6105C19.633 13.7081 20.4551 13.058 21.1942 13.1734C21.9542 13.2921 22.3882 14.1396 22.2556 14.9924L22.2554 14.9924C22.1855 15.4394 21.9292 15.7689 21.5805 15.8742C21.2264 15.9812 20.8382 15.8389 20.5496 15.4683L20.5496 15.4682C20.5099 15.4172 20.4792 15.3989 20.4608 15.3917C20.4432 15.3847 20.4238 15.3828 20.3967 15.3877C20.367 15.3931 20.3328 15.4058 20.2889 15.4261C20.2783 15.431 20.2651 15.4373 20.2507 15.4443C20.2177 15.4602 20.1778 15.4795 20.1455 15.4924C20.0974 15.5116 20.0189 15.5381 19.9329 15.5214C19.8317 15.5019 19.7634 15.4332 19.7219 15.3514C19.6837 15.2761 19.6618 15.1789 19.6483 15.0647C19.6345 14.9476 19.6281 14.7985 19.629 14.6106M21.1401 13.5199C21.6375 13.5975 22.0239 14.1964 21.9093 14.9374ZM21.9093 14.9374L21.9091 14.9374C21.8549 15.2858 21.669 15.4812 21.4791 15.5385C21.2944 15.5943 21.0473 15.5367 20.8263 15.2529" fill="white"/>
    <path d="M19.5187 13.2286C20.1698 13.9615 19.4369 14.5307 20.2516 14.2046C20.6583 14.0421 20.1733 14.6114 20.6583 14.6114C21.1434 14.6114 21.4742 13.7978 21.9604 13.7978C22.4467 13.7978 23.2134 15.0485 23.1807 15.1806C23.3174 14.9468 23.2625 15.1327 23.2625 14.8556C23.2625 13.889 22.449 12.8219 20.6583 12.6582C19.5924 12.5612 18.4609 12.9832 18.3803 13.7978C18.3709 13.8902 18.5264 15.2554 18.5428 15.3442C18.1921 13.9743 19.2896 12.9703 19.5187 13.2286Z" fill="url(#paint8_radial_14307_9490)"/>
    <g opacity="0.8">
      <path d="M28.0842 13.2742C28.0772 13.3057 28.0363 13.2999 28.0433 13.3338C28.0141 13.3443 27.9697 13.3373 27.958 13.3092L27.9674 13.2718C28.0059 13.2742 28.0609 13.2508 28.0842 13.2742Z" fill="#F4EC4F"/>
      <path d="M26.4823 13.6083C26.4823 13.6212 26.4624 13.6329 26.4507 13.6399C26.4413 13.634 26.4413 13.6212 26.4484 13.6083C26.4624 13.5943 26.4741 13.6025 26.4834 13.6083H26.4823Z" fill="#F4EC4F"/>
      <path d="M26.9774 13.8652C26.9715 13.891 26.9844 13.9097 26.9774 13.9389C26.9271 13.988 26.8535 13.9915 26.802 13.9739C26.7857 13.9693 26.788 13.9459 26.7974 13.933C26.8394 13.891 26.8733 13.8454 26.9341 13.8442C26.9855 13.8173 26.9341 13.9026 26.9774 13.8664V13.8652Z" fill="#F4EC4F"/>
      <path d="M26.1456 14.02L26.169 14.0083C26.169 14.0212 26.1293 14.0434 26.1316 14.0633L26.1854 14.0586C26.1877 14.0773 26.1667 14.0796 26.1538 14.0866C26.2041 14.1276 26.1795 14.172 26.2274 14.2199L26.1749 14.2339C26.169 14.2596 26.1924 14.2772 26.183 14.3005C26.1234 14.29 26.1339 14.3602 26.0965 14.3894C26.0743 14.394 26.0241 14.4151 25.9913 14.4046C25.9925 14.4268 25.9773 14.4642 25.9633 14.4946L25.9504 14.4724C25.9236 14.484 25.9154 14.5051 25.9259 14.5203C25.913 14.5016 25.8826 14.5402 25.8686 14.5413C25.8803 14.5822 25.9387 14.5869 25.9271 14.65C25.9154 14.6839 25.8862 14.705 25.8569 14.74C25.8312 14.7131 25.7681 14.7307 25.7541 14.7131C25.7739 14.6722 25.7295 14.6337 25.781 14.5939C25.7693 14.5846 25.7412 14.5846 25.7155 14.5892C25.6945 14.6173 25.7342 14.6302 25.7143 14.6582C25.6664 14.636 25.6571 14.6173 25.6185 14.5881L25.5986 14.6126C25.6068 14.5472 25.4993 14.5226 25.5051 14.484C25.5226 14.4081 25.5647 14.3169 25.6243 14.2608C25.6723 14.2795 25.6968 14.2059 25.7249 14.1918C25.7412 14.1965 25.7342 14.2304 25.7611 14.2047C25.7856 14.1568 25.7167 14.1825 25.7751 14.1287C25.8441 14.1322 25.9165 14.0492 25.975 14.0247C26.0381 13.9931 26.0171 14.082 26.079 14.0294C26.0568 14.006 26.0965 14.0153 26.1071 13.9978C26.1328 13.992 26.1374 14.0013 26.1433 14.0212L26.1456 14.02Z" fill="#F4EC4F"/>
      <path d="M26.5925 14.6195C26.5984 14.6382 26.5715 14.6511 26.561 14.6639C26.5283 14.699 26.5014 14.6639 26.4873 14.6476C26.4862 14.6219 26.5119 14.5996 26.5364 14.5845C26.5762 14.5611 26.5855 14.5996 26.5914 14.6183L26.5925 14.6195Z" fill="#F4EC4F"/>
      <path d="M25.936 14.7727C25.9383 14.7925 25.9477 14.8101 25.9325 14.8311C25.9033 14.8533 25.874 14.8755 25.846 14.8709C25.8226 14.8498 25.7922 14.8463 25.8121 14.8019C25.8331 14.754 25.9161 14.7318 25.9348 14.7715L25.936 14.7727Z" fill="#F4EC4F"/>
      <path d="M27.4426 14.766C27.4788 14.808 27.4169 14.8326 27.3877 14.8712C27.3164 14.8454 27.3397 14.9471 27.2743 14.9273C27.2626 14.9191 27.2474 14.9074 27.2591 14.884C27.3374 14.8606 27.2638 14.7706 27.3444 14.7531C27.3806 14.7332 27.4134 14.7554 27.4426 14.766Z" fill="#F4EC4F"/>
      <path d="M26.8417 14.8303C26.844 14.8525 26.8195 14.8841 26.7973 14.8899C26.7704 14.9028 26.7552 14.8783 26.7482 14.8619C26.7459 14.8397 26.7704 14.8081 26.7961 14.8058C26.8253 14.7999 26.8277 14.8186 26.8429 14.8303H26.8417Z" fill="#F4EC4F"/>
      <path d="M26.5135 14.9097C26.51 14.926 26.496 14.9272 26.4855 14.9412C26.4586 14.9506 26.4574 14.9249 26.4492 14.9155L26.4749 14.877C26.4995 14.877 26.503 14.891 26.5135 14.9085V14.9097Z" fill="#F4EC4F"/>
      <path d="M26.7913 14.9448C26.7796 14.9658 26.7656 14.9834 26.7411 14.9951C26.7189 14.9845 26.685 14.981 26.7037 14.9436C26.7083 14.9203 26.7306 14.9179 26.7516 14.9004C26.775 14.9051 26.7878 14.9226 26.7902 14.9448H26.7913Z" fill="#F4EC4F"/>
      <path d="M26.4642 15.0199C26.4618 15.0457 26.477 15.0573 26.4911 15.069C26.4607 15.0947 26.4689 15.1357 26.4572 15.1602C26.4315 15.1368 26.3987 15.1883 26.3637 15.2011C26.3134 15.1929 26.2702 15.1345 26.3064 15.0667C26.3496 15.0433 26.3859 14.9627 26.4256 15.0036C26.4373 15.0118 26.4443 15.0281 26.4642 15.0199Z" fill="#F4EC4F"/>
      <path d="M25.8263 15.1358L25.852 15.2083C25.8192 15.2597 25.7374 15.2831 25.7199 15.3112C25.6918 15.2971 25.6825 15.2258 25.6275 15.2667C25.5913 15.2539 25.575 15.2153 25.589 15.1721C25.6486 15.0926 25.7444 15.1814 25.7853 15.0938C25.776 15.1206 25.79 15.1358 25.8251 15.1358H25.8263Z" fill="#F4EC4F"/>
      <path d="M26.7703 15.0404C26.7691 15.0638 26.7597 15.0895 26.7481 15.1105C26.7282 15.1059 26.7013 15.1152 26.6768 15.1141C26.6791 15.0883 26.6733 15.0533 26.7036 15.0276C26.7282 15.0089 26.7656 15.0147 26.7703 15.0404Z" fill="#F4EC4F"/>
      <path d="M26.8352 15.1902C26.7954 15.23 26.7791 15.189 26.744 15.1902C26.7358 15.1774 26.737 15.1622 26.744 15.1411C26.7627 15.1201 26.7826 15.1084 26.8106 15.1084C26.8422 15.1248 26.8153 15.1668 26.834 15.1902H26.8352Z" fill="#F4EC4F"/>
      <path d="M27.3436 15.2245C27.3518 15.2525 27.3191 15.2596 27.3015 15.2736C27.2805 15.2724 27.2665 15.2607 27.2676 15.2385C27.277 15.1953 27.3354 15.1836 27.3436 15.2245Z" fill="#F4EC4F"/>
      <path d="M26.6346 15.5884C26.6346 15.6083 26.5914 15.6281 26.582 15.6059L26.6054 15.5615C26.6171 15.5697 26.6358 15.5685 26.6346 15.5884Z" fill="#F4EC4F"/>
      <path d="M30.2744 15.6254C30.2744 15.6254 30.2732 15.6324 30.2686 15.6359V15.623C30.2686 15.623 30.2709 15.6266 30.2744 15.6254Z" fill="#F4EC4F"/>
      <path d="M27.944 16.0068C27.9171 16.0489 27.8248 16.1062 27.8786 16.1307C27.9651 16.1354 27.9253 16.2231 27.9767 16.257C27.9499 16.2698 27.9323 16.3037 27.9545 16.3271C27.9592 16.3364 27.9767 16.3376 27.9884 16.3329C27.9697 16.354 27.8938 16.3972 27.8797 16.4475C27.819 16.4732 27.7325 16.5013 27.6997 16.5235C27.6892 16.541 27.7196 16.5281 27.7044 16.5492C27.6904 16.5153 27.6308 16.5048 27.5934 16.4826L27.5829 16.5001C27.5314 16.4989 27.5244 16.4475 27.5174 16.4159C27.5069 16.4007 27.48 16.4264 27.4706 16.4241C27.4695 16.4148 27.5338 16.3598 27.501 16.3341L27.4473 16.34C27.4718 16.3213 27.508 16.3341 27.5197 16.2967C27.5174 16.2768 27.5104 16.2616 27.5116 16.2523C27.5677 16.2336 27.5653 16.1494 27.6284 16.1331C27.6647 16.1588 27.6939 16.1074 27.7126 16.0828L27.7044 16.1226C27.7441 16.0828 27.7827 16.0828 27.826 16.0746L27.8213 16.098C27.8774 16.098 27.9031 16.0244 27.9452 16.008L27.944 16.0068Z" fill="#F4EC4F"/>
      <path d="M27.8551 16.0452H27.8516L27.8761 16.0137C27.8808 16.023 27.8609 16.0347 27.8551 16.0452Z" fill="#F4EC4F"/>
      <path d="M27.6005 16.1262C27.6005 16.1262 27.5947 16.1403 27.583 16.1414C27.5853 16.1309 27.5877 16.1216 27.6005 16.1262Z" fill="#F4EC4F"/>
      <path d="M25.4334 15.915C25.3948 15.9314 25.417 15.894 25.4124 15.8811C25.4334 15.8788 25.4521 15.894 25.4334 15.915Z" fill="#F4EC4F"/>
      <path d="M27.5359 16.2138V16.2208L27.5254 16.2114C27.5301 16.2079 27.5324 16.2114 27.5359 16.2138Z" fill="#F4EC4F"/>
      <path d="M28.0321 16.2656C28.0251 16.2632 28.0052 16.2749 28.0157 16.2609C28.0274 16.2527 28.0297 16.2632 28.0321 16.2656Z" fill="#F4EC4F"/>
      <path d="M28.1396 16.348C28.1396 16.348 28.1373 16.3586 28.1338 16.3586V16.3457C28.1338 16.3457 28.1361 16.3457 28.1396 16.348Z" fill="#F4EC4F"/>
      <path d="M27.922 16.4842V16.4912L27.9092 16.4795C27.9162 16.4795 27.9197 16.4795 27.922 16.4842Z" fill="#F4EC4F"/>
      <path d="M27.9494 16.7212C27.9997 16.7002 27.9763 16.7738 28.0207 16.7797C28.0184 16.7738 27.9611 16.7949 27.9775 16.8194C27.9857 16.8451 28.0149 16.8089 28.0044 16.8393C27.988 16.8183 27.9378 16.8393 27.9249 16.8533L27.9378 16.8744C27.8898 16.8568 27.8255 16.8428 27.8349 16.7844C27.8454 16.7341 27.8875 16.7505 27.9074 16.7061C27.8992 16.7423 27.9506 16.699 27.9494 16.7212Z" fill="#F4EC4F"/>
      <path d="M27.1944 16.8124C27.2026 16.8241 27.1839 16.8463 27.1663 16.844C27.1418 16.83 27.1663 16.7949 27.1944 16.8124Z" fill="#F4EC4F"/>
      <path d="M28.2443 16.7336C28.2455 16.7429 28.2525 16.7581 28.2303 16.7675C28.2057 16.7675 28.2104 16.7464 28.2244 16.7324C28.2314 16.7348 28.2373 16.7383 28.2455 16.7336H28.2443Z" fill="#F4EC4F"/>
      <path d="M28.1064 17.5231C28.1543 17.4962 28.1964 17.5569 28.2653 17.5149C28.2408 17.5172 28.2104 17.5558 28.2022 17.5336C28.2431 17.5394 28.1835 17.6201 28.2303 17.6446C28.1835 17.6808 28.1543 17.7007 28.1075 17.7533C28.0865 17.7393 28.0526 17.7358 28.021 17.7521V17.765C27.9895 17.7358 27.9883 17.7101 27.9287 17.7288L27.9229 17.7393C27.9287 17.7124 27.9439 17.7241 27.9626 17.6995C27.9451 17.6984 27.9567 17.6645 27.9334 17.6762C27.9462 17.6364 27.9766 17.5944 27.9638 17.5569C28.0093 17.6014 28.0888 17.4669 28.1075 17.5242L28.1064 17.5231Z" fill="#F4EC4F"/>
      <path d="M27.8536 17.5888C27.8419 17.597 27.8232 17.6016 27.8232 17.5853C27.8267 17.5724 27.8396 17.5607 27.8536 17.5596C27.8595 17.5654 27.8595 17.5783 27.8536 17.5888Z" fill="#F4EC4F"/>
      <path d="M28.2492 17.6494L28.248 17.6389L28.2621 17.6377L28.2492 17.6494Z" fill="#F4EC4F"/>
      <path d="M28.0418 17.8033L28.0371 17.7939L28.0441 17.7975L28.0418 17.8033Z" fill="#F4EC4F"/>
      <path d="M28.2196 17.8838C28.222 17.9025 28.1846 17.9002 28.1787 17.9095C28.1881 17.899 28.2068 17.8943 28.2196 17.8838Z" fill="#F4EC4F"/>
      <path d="M28.0505 17.952C28.0645 17.9509 28.0762 17.9333 28.0821 17.9205C28.0774 17.9696 28.1405 17.9252 28.1686 17.9217C28.1732 17.9789 28.2387 17.9965 28.2691 18.0455C28.2773 18.042 28.2749 18.035 28.2761 18.0327C28.2375 18.0818 28.2703 18.1168 28.2668 18.1624C28.2364 18.1426 28.2352 18.1905 28.2317 18.2068C28.2679 18.201 28.289 18.2302 28.2995 18.2454L28.2609 18.2291C28.2364 18.2442 28.2048 18.2431 28.1919 18.2711C28.2013 18.2735 28.2107 18.2828 28.2036 18.2957C28.1931 18.2957 28.1873 18.291 28.1814 18.2852C28.1475 18.3109 28.1452 18.3366 28.1534 18.3588C28.1019 18.3413 28.04 18.3693 27.9792 18.3868L27.9734 18.4126C27.9897 18.3892 27.9488 18.3833 27.9465 18.367C27.8822 18.402 27.881 18.3062 27.8203 18.3272C27.8483 18.27 27.8051 18.2583 27.7945 18.2139L27.7899 18.2174C27.77 18.1391 27.8635 18.0654 27.874 17.9906C27.9208 17.9988 27.9477 17.9415 28.0014 17.9532L28.0318 17.9111C28.0505 17.9193 28.012 17.952 28.0505 17.9509V17.952Z" fill="#F4EC4F"/>
      <path d="M26.3076 18.3232H26.3111L26.3053 18.3525H26.3018L26.3076 18.3232Z" fill="#F4EC4F"/>
      <path d="M26.5714 18.3125C26.5667 18.3196 26.5515 18.3242 26.541 18.3219C26.541 18.3055 26.5656 18.3067 26.5714 18.3125Z" fill="#F4EC4F"/>
      <path d="M28.3597 18.2978C28.3386 18.2989 28.3433 18.2639 28.3223 18.2627C28.3328 18.2779 28.3655 18.272 28.3597 18.2978Z" fill="#F4EC4F"/>
      <path d="M28.2592 18.3092L28.251 18.2998H28.2615L28.2592 18.3092Z" fill="#F4EC4F"/>
      <path d="M28.6101 18.3062C28.5996 18.333 28.5855 18.3213 28.582 18.3085C28.5914 18.3015 28.6113 18.2898 28.6101 18.3062Z" fill="#F4EC4F"/>
      <path d="M28.4263 18.3431L28.4053 18.3291L28.4146 18.3314L28.4263 18.3431Z" fill="#F4EC4F"/>
      <path d="M28.0708 18.8004C28.0906 18.818 28.0708 18.8449 28.0532 18.8694C28.0345 18.8869 27.9995 18.8741 27.996 18.9033C27.9854 18.8881 27.9375 18.8612 27.9703 18.8133C27.9983 18.7689 28.0532 18.7712 28.0708 18.8016V18.8004Z" fill="#F4EC4F"/>
      <path d="M28.2772 18.8466C28.2994 18.8127 28.3111 18.863 28.3251 18.8232C28.3742 18.8232 28.3683 18.8747 28.435 18.8723C28.3999 18.8875 28.4233 18.9308 28.449 18.9132C28.4081 18.9647 28.4057 18.9997 28.3602 19.0418C28.3274 19.0442 28.2854 19.0219 28.2632 19.0687C28.2515 19.0477 28.2199 19.0184 28.193 19.043C28.193 18.9892 28.186 18.9612 28.2012 18.9027C28.2129 18.8829 28.2865 18.8665 28.2678 18.8303C28.2737 18.8361 28.2678 18.8466 28.2772 18.849V18.8466Z" fill="#F4EC4F"/>
      <path d="M26.4126 19.1891C26.4021 19.2149 26.3928 19.2254 26.3811 19.2593C26.3472 19.285 26.3378 19.2546 26.3039 19.2803C26.2782 19.2487 26.2607 19.2347 26.2887 19.1868C26.3028 19.1693 26.325 19.1669 26.3413 19.1564C26.3869 19.1389 26.3857 19.1833 26.4115 19.1903L26.4126 19.1891Z" fill="#F4EC4F"/>
      <path d="M28.4851 18.9609L28.4688 18.9562L28.4874 18.9551L28.4851 18.9609Z" fill="#F4EC4F"/>
      <path d="M27.1748 19.255C27.1701 19.2714 27.1607 19.2819 27.1572 19.2947C27.121 19.3135 27.0894 19.3333 27.0625 19.3006C27.0625 19.2842 27.0427 19.2714 27.0625 19.2468C27.0789 19.2363 27.0988 19.2118 27.1163 19.2129C27.142 19.2235 27.1759 19.2258 27.1748 19.255Z" fill="#F4EC4F"/>
      <path d="M27.5487 19.2695C27.5826 19.2567 27.6013 19.28 27.627 19.2847C27.6211 19.3198 27.6316 19.3315 27.6059 19.3654C27.5627 19.4261 27.5346 19.3502 27.4844 19.37C27.5007 19.3338 27.5265 19.2906 27.5498 19.2637V19.2707L27.5487 19.2695Z" fill="#F4EC4F"/>
      <path d="M29.3722 19.1422C29.3722 19.1422 29.3629 19.1492 29.3594 19.1492L29.3676 19.1328C29.3734 19.1363 29.3734 19.1387 29.3722 19.1422Z" fill="#F4EC4F"/>
      <path d="M26.617 19.4927C26.6205 19.5172 26.6006 19.557 26.5656 19.5582C26.5352 19.5675 26.527 19.5465 26.513 19.5348C26.5095 19.5067 26.541 19.4787 26.5679 19.4658C26.5878 19.4705 26.6193 19.4658 26.6158 19.4927H26.617Z" fill="#F4EC4F"/>
      <path d="M28.4464 19.4655C28.4288 19.4666 28.3903 19.4795 28.3914 19.4503C28.3844 19.4257 28.4253 19.4164 28.4393 19.4023C28.4393 19.4246 28.4744 19.4374 28.4464 19.4655Z" fill="#F4EC4F"/>
      <path d="M26.6524 16.0257C26.6804 16.0233 26.7038 16.0303 26.74 16.0105C26.7365 16.0268 26.7085 16.0432 26.7283 16.0502C26.7763 16.0713 26.8113 16.1203 26.8861 16.0935C26.8628 16.1051 26.8289 16.0993 26.8055 16.1274C26.8066 16.1531 26.816 16.1753 26.8405 16.1916C26.8148 16.1811 26.8195 16.2232 26.8113 16.2302C26.8125 16.2887 26.8978 16.2968 26.906 16.3413C26.8744 16.3284 26.8487 16.2688 26.7973 16.2933C26.7576 16.3331 26.7833 16.3763 26.7728 16.4067C26.7681 16.4102 26.7657 16.3915 26.7599 16.3857C26.7283 16.4184 26.6617 16.4336 26.6769 16.4815C26.6021 16.5213 26.4759 16.5049 26.3824 16.5002C26.3531 16.4581 26.3368 16.4044 26.3122 16.3576C26.304 16.3611 26.2935 16.3658 26.2842 16.3728C26.3216 16.3109 26.3239 16.2232 26.2994 16.1893C26.3146 16.1519 26.3321 16.1987 26.3543 16.1613C26.3824 16.1426 26.3789 16.1133 26.3905 16.0888C26.4689 16.0526 26.5086 16.0292 26.5776 15.9824C26.539 16.0479 26.6605 15.9836 26.6524 16.0233V16.0257Z" fill="#F4EC4F"/>
      <path d="M29.4741 19.3975C29.4659 19.401 29.4682 19.4045 29.4671 19.408L29.5839 19.3975L29.5664 19.4115C29.6132 19.4349 29.6389 19.4536 29.6868 19.4851C29.7149 19.5588 29.6471 19.6511 29.6611 19.7212C29.6272 19.7633 29.6436 19.7084 29.612 19.7095C29.6015 19.7224 29.5547 19.7329 29.5863 19.7458C29.5512 19.7434 29.5255 19.7598 29.4928 19.761L29.4869 19.7902C29.4507 19.782 29.439 19.7633 29.3899 19.7832C29.3852 19.8089 29.4191 19.8019 29.4063 19.8299C29.4028 19.7727 29.3245 19.7785 29.3139 19.7212L29.2882 19.7481C29.2789 19.7236 29.3163 19.6803 29.273 19.6721L29.2578 19.685C29.2567 19.6312 29.2871 19.5763 29.2929 19.5179C29.3233 19.4372 29.4028 19.4302 29.4729 19.3986L29.4741 19.3975Z" fill="#F4EC4F"/>
      <path d="M28.1601 19.5421C28.1601 19.555 28.1508 19.5643 28.1414 19.5714C28.1146 19.5795 28.1052 19.5643 28.111 19.5456C28.1286 19.5223 28.1531 19.5293 28.1601 19.5421Z" fill="#F4EC4F"/>
      <path d="M28.3316 19.5369C28.3363 19.5462 28.3223 19.5474 28.3176 19.5509C28.3036 19.5509 28.3012 19.5334 28.3211 19.5252C28.3328 19.5217 28.3305 19.531 28.3316 19.5369Z" fill="#F4EC4F"/>
      <path d="M29.009 19.6732C28.9891 19.6931 28.9774 19.6744 28.9786 19.6592C28.9926 19.6592 29.0066 19.6615 29.009 19.6732Z" fill="#F4EC4F"/>
      <path d="M29.6467 19.6816H29.6502L29.6432 19.7038H29.6396L29.6467 19.6816Z" fill="white"/>
      <path d="M29.2285 19.7481L29.2542 19.7002L29.2425 19.7353L29.2285 19.7481Z" fill="#F4EC4F"/>
      <path d="M29.7257 19.7287C29.7234 19.7357 29.7105 19.7416 29.7012 19.7392C29.7047 19.7299 29.7199 19.7229 29.7257 19.7287Z" fill="#F4EC4F"/>
      <path d="M29.5356 19.8439C29.5111 19.8544 29.5415 19.8591 29.5427 19.8661C29.4947 19.8731 29.5368 19.8287 29.4971 19.8193C29.5134 19.8217 29.538 19.8252 29.5356 19.8439Z" fill="#F4EC4F"/>
      <path d="M30.728 20.5091C30.7128 20.5699 30.7946 20.5968 30.7782 20.6471C30.7724 20.6471 30.7677 20.6354 30.7583 20.6447C30.8039 20.695 30.6859 20.7113 30.735 20.7593L30.7046 20.7452C30.68 20.7604 30.6847 20.7768 30.6835 20.7955C30.6765 20.7897 30.6835 20.7745 30.6695 20.7698C30.638 20.7955 30.5959 20.8002 30.5643 20.8049C30.5678 20.8025 30.569 20.8002 30.5713 20.7955C30.5293 20.7955 30.5106 20.7967 30.479 20.7733C30.4638 20.7791 30.465 20.7932 30.4673 20.8002C30.5024 20.7382 30.3832 20.702 30.4428 20.6202C30.4054 20.6038 30.4568 20.5711 30.465 20.5454C30.4708 20.515 30.493 20.5033 30.5246 20.4904C30.5994 20.4752 30.6754 20.4682 30.728 20.5091Z" fill="#F4EC4F"/>
      <path d="M28.1238 19.9539C28.1238 19.9726 28.1039 19.9831 28.0887 19.9901C28.0665 19.9854 28.0735 19.9632 28.0852 19.9469C28.1027 19.9363 28.1156 19.9469 28.1238 19.9527V19.9539Z" fill="#F4EC4F"/>
      <path d="M28.7758 20.002L28.7734 20.0079L28.7676 19.9962C28.7758 19.9927 28.7734 19.9985 28.7758 20.002Z" fill="#F4EC4F"/>
      <path d="M28.7771 20.0601L28.7725 20.0636L28.7783 20.0449C28.7841 20.0473 28.7783 20.0578 28.776 20.0601H28.7771Z" fill="#F4EC4F"/>
      <path d="M28.6624 20.1128L28.6706 20.149C28.625 20.142 28.618 20.1607 28.5701 20.1642C28.5771 20.142 28.5432 20.1327 28.5701 20.0941C28.5771 20.0813 28.6122 20.0614 28.6321 20.0625C28.6484 20.0766 28.7139 20.0859 28.6636 20.1128H28.6624Z" fill="#F4EC4F"/>
      <path d="M30.8767 20.6756L30.8662 20.6709L30.8744 20.6721L30.8767 20.6756Z" fill="#F4EC4F"/>
      <path d="M28.6797 20.106L28.6809 20.1025H28.6914L28.6797 20.106Z" fill="#F4EC4F"/>
      <path d="M32.7259 20.4974L32.7061 20.4834L32.7236 20.4927L32.7259 20.4974Z" fill="#F4EC4F"/>
      <path d="M30.8543 20.758L30.8438 20.7451L30.8484 20.7486L30.8543 20.758Z" fill="#F4EC4F"/>
      <path d="M30.8939 20.7957C30.8939 20.8039 30.8857 20.8004 30.8799 20.7992C30.8846 20.7945 30.8869 20.7899 30.8939 20.7957Z" fill="#F4EC4F"/>
      <path d="M30.6146 20.8127C30.5982 20.8162 30.6146 20.8045 30.6169 20.7998C30.6216 20.8033 30.6134 20.8068 30.6146 20.8127Z" fill="#F4EC4F"/>
      <path d="M30.5155 20.8325C30.5201 20.815 30.4898 20.8092 30.5003 20.7998C30.512 20.8092 30.5482 20.8127 30.5155 20.8325Z" fill="#F4EC4F"/>
      <path d="M30.6328 20.8279H30.6094L30.6129 20.8174L30.6363 20.8209L30.6328 20.8279Z" fill="#F4EC4F"/>
      <path d="M28.5904 20.3374C28.5682 20.3725 28.539 20.3374 28.5647 20.3234C28.5799 20.3199 28.5916 20.3246 28.5904 20.3374Z" fill="#F4EC4F"/>
      <path d="M28.6557 20.3453C28.6323 20.3616 28.6253 20.3347 28.6463 20.3242C28.6545 20.3301 28.6639 20.3324 28.6557 20.3453Z" fill="#F4EC4F"/>
      <path d="M28.5259 20.4017C28.5037 20.4146 28.5142 20.3959 28.5142 20.3877C28.5189 20.3935 28.5364 20.383 28.5259 20.4017Z" fill="#F4EC4F"/>
      <path d="M28.2669 20.5545C28.2447 20.5405 28.1968 20.5708 28.2026 20.5346C28.2354 20.5299 28.2529 20.537 28.2669 20.5545Z" fill="#F4EC4F"/>
      <path d="M28.2141 20.576C28.22 20.5701 28.1896 20.5865 28.2024 20.5713L28.2141 20.576Z" fill="#F4EC4F"/>
      <path d="M28.247 20.5801L28.2354 20.5742L28.2447 20.5766L28.247 20.5801Z" fill="#F4EC4F"/>
      <path d="M28.2296 20.6023L28.2109 20.5977L28.2308 20.5988L28.2296 20.6023Z" fill="#F4EC4F"/>
      <path d="M28.3329 20.7001C28.3212 20.713 28.306 20.7071 28.3177 20.6954C28.3259 20.6919 28.327 20.6978 28.3329 20.7001Z" fill="#F4EC4F"/>
      <path d="M30.6826 21.3132L30.6581 21.3448C30.6136 21.3471 30.6113 21.3015 30.6207 21.284C30.6557 21.2606 30.6756 21.2968 30.6826 21.3144V21.3132Z" fill="#F4EC4F"/>
      <path d="M29.6796 21.3043C29.6656 21.309 29.6656 21.2973 29.6621 21.2891C29.6726 21.2692 29.7135 21.2867 29.6796 21.3043Z" fill="#F4EC4F"/>
      <path d="M30.0605 21.4257L30.0664 21.4023L30.0734 21.421L30.0605 21.4257Z" fill="#F4EC4F"/>
    </g>
    <path d="M24.7243 17.6279C24.7021 17.6548 24.6694 17.6244 24.66 17.663C24.6285 17.656 24.5934 17.6209 24.5981 17.5882L24.625 17.5566C24.6577 17.5824 24.7161 17.5905 24.7243 17.6279Z" fill="#F4EC4F"/>
    <path d="M23.1816 16.955C23.1746 16.9679 23.1524 16.9655 23.1372 16.9644C23.1325 16.9527 23.1395 16.9398 23.1524 16.9305C23.1723 16.9258 23.1769 16.9433 23.1816 16.9538V16.955Z" fill="#F4EC4F"/>
    <path d="M23.4675 17.5431C23.4488 17.5665 23.4511 17.5933 23.4312 17.6202C23.3634 17.6401 23.2968 17.5957 23.2606 17.5419C23.2489 17.5256 23.2606 17.5033 23.277 17.4952C23.3342 17.4776 23.3868 17.4543 23.4406 17.4917C23.499 17.4975 23.4125 17.5524 23.4675 17.5431Z" fill="#F4EC4F"/>
    <path d="M22.6738 17.1418L22.6995 17.1465C22.6925 17.1605 22.6469 17.1558 22.6387 17.178L22.6855 17.2108C22.6773 17.233 22.6586 17.2201 22.6434 17.2189C22.6656 17.2984 22.6212 17.3288 22.6387 17.4141L22.5862 17.3931C22.5675 17.4176 22.5791 17.4527 22.5593 17.4726C22.5137 17.4188 22.4868 17.503 22.4389 17.5088C22.4167 17.4995 22.3641 17.4854 22.3407 17.4515C22.3302 17.4784 22.2986 17.5076 22.2706 17.5322V17.4995C22.2413 17.4936 22.2238 17.51 22.225 17.5345C22.2226 17.5041 22.1782 17.5263 22.1654 17.517C22.1537 17.5719 22.2039 17.6187 22.163 17.6818C22.1373 17.711 22.0999 17.7157 22.0578 17.7344C22.0485 17.6853 21.9842 17.6608 21.9807 17.6304C22.0169 17.5988 21.9982 17.5228 22.0637 17.5147C22.0578 17.496 22.0345 17.4749 22.0099 17.4621C21.9784 17.4784 22.0052 17.5217 21.9737 17.5392C21.9445 17.4796 21.9456 17.4504 21.9269 17.3884L21.8977 17.4013C21.9375 17.3335 21.858 17.226 21.886 17.1839C21.9421 17.1102 22.0274 17.0401 22.1081 17.0226C22.1385 17.0799 22.1981 17.0179 22.2308 17.0226C22.2413 17.0401 22.2168 17.0705 22.253 17.0635C22.2998 17.0308 22.2285 17.0062 22.3068 16.9922C22.3629 17.0483 22.4681 17.0121 22.5312 17.0284C22.6013 17.0413 22.5347 17.1208 22.6165 17.1079C22.6107 17.067 22.6387 17.1056 22.6575 17.095C22.682 17.1079 22.6808 17.1208 22.6762 17.1453L22.6738 17.1418Z" fill="#F4EC4F"/>
    <path d="M22.7665 18.102C22.763 18.1265 22.7338 18.1218 22.7174 18.1312C22.6718 18.1487 22.6648 18.0903 22.6602 18.0646C22.6707 18.0353 22.7046 18.0283 22.7326 18.0283C22.7794 18.0295 22.7689 18.0774 22.7654 18.1031L22.7665 18.102Z" fill="#F4EC4F"/>
    <path d="M22.1124 17.8222C22.1054 17.8456 22.1042 17.8737 22.0808 17.8865C22.0446 17.8912 22.0084 17.8947 21.9862 17.8713C21.9757 17.8316 21.9511 17.8047 21.9897 17.7696C22.0318 17.7311 22.1147 17.7638 22.1124 17.8222Z" fill="#F4EC4F"/>
    <path d="M23.4688 18.8098C23.484 18.8787 23.4174 18.8682 23.3741 18.8927C23.3192 18.8203 23.2982 18.9465 23.2456 18.8846C23.2385 18.867 23.2292 18.8448 23.2502 18.8261C23.3321 18.8495 23.304 18.7034 23.3846 18.735C23.4256 18.735 23.4454 18.7817 23.4676 18.8109L23.4688 18.8098Z" fill="#F4EC4F"/>
    <path d="M22.8962 18.4996C22.888 18.5264 22.8518 18.5451 22.8296 18.537C22.7992 18.5335 22.7969 18.4961 22.7969 18.4738C22.8051 18.447 22.8413 18.4283 22.8647 18.4423C22.8939 18.4551 22.8869 18.4773 22.8951 18.5007L22.8962 18.4996Z" fill="#F4EC4F"/>
    <path d="M22.5647 18.3715C22.5542 18.3879 22.5401 18.3797 22.5249 18.3891C22.4969 18.3809 22.5074 18.3516 22.5039 18.3353L22.5448 18.3096C22.5659 18.3271 22.5647 18.3435 22.5647 18.3715Z" fill="#F4EC4F"/>
    <path d="M22.8008 18.5936C22.7809 18.6087 22.761 18.6193 22.7341 18.6169C22.7189 18.59 22.6885 18.5643 22.7224 18.5351C22.7376 18.5129 22.7575 18.5246 22.7856 18.5176C22.8054 18.5374 22.8089 18.5667 22.8019 18.5936H22.8008Z" fill="#F4EC4F"/>
    <path d="M22.4697 18.4636C22.4557 18.4917 22.4639 18.515 22.472 18.5372C22.4335 18.5466 22.4229 18.5992 22.4019 18.6179C22.3879 18.5735 22.3365 18.6109 22.299 18.6027C22.257 18.5594 22.2441 18.4648 22.3072 18.411C22.3575 18.4133 22.4253 18.3455 22.4428 18.4192C22.4498 18.4367 22.4487 18.4589 22.4709 18.4624L22.4697 18.4636Z" fill="#F4EC4F"/>
    <path d="M21.8436 18.1605L21.8331 18.2621C21.7805 18.2995 21.6963 18.2692 21.6683 18.289C21.6496 18.2528 21.6741 18.164 21.6063 18.1721C21.5806 18.1312 21.583 18.0763 21.6157 18.0354C21.7057 17.9863 21.7501 18.1569 21.8272 18.0845C21.8062 18.109 21.812 18.1359 21.8436 18.1605Z" fill="#F4EC4F"/>
    <path d="M22.7399 18.6888C22.7282 18.7133 22.7084 18.7379 22.6885 18.7531C22.6721 18.7344 22.6441 18.7274 22.623 18.711C22.6359 18.6829 22.6464 18.6397 22.685 18.6303C22.7154 18.6257 22.7469 18.6572 22.7399 18.6888Z" fill="#F4EC4F"/>
    <path d="M22.7343 18.899C22.6805 18.9177 22.684 18.8616 22.6525 18.8393C22.6513 18.8206 22.6583 18.8019 22.6735 18.7844C22.7004 18.7727 22.7226 18.7727 22.7483 18.7914C22.7694 18.83 22.7273 18.8592 22.7343 18.899Z" fill="#F4EC4F"/>
    <path d="M23.1876 19.2597C23.1829 19.2959 23.1502 19.2831 23.128 19.2889C23.1093 19.2749 23.0999 19.2527 23.1116 19.2281C23.1385 19.1861 23.1969 19.2083 23.1876 19.2597Z" fill="#F4EC4F"/>
    <path d="M22.3842 19.2239C22.3749 19.2461 22.327 19.2414 22.3281 19.2099L22.3679 19.1748C22.3749 19.1923 22.3924 19.2017 22.3842 19.2239Z" fill="#F4EC4F"/>
    <path d="M25.7974 21.3535C25.7974 21.3535 25.7939 21.3605 25.7881 21.3617L25.7916 21.3477C25.7916 21.3477 25.7939 21.3523 25.7974 21.3535Z" fill="#F4EC4F"/>
    <path d="M23.4447 20.511C23.405 20.5426 23.2951 20.5543 23.3384 20.6139C23.419 20.67 23.3489 20.7471 23.3863 20.8161C23.3559 20.8149 23.3267 20.843 23.3395 20.8839C23.3407 20.8979 23.3571 20.9096 23.3687 20.9107C23.343 20.9248 23.2554 20.9294 23.225 20.9797C23.1572 20.9739 23.0649 20.9552 23.0263 20.9622C23.0099 20.9762 23.0438 20.9797 23.0216 20.9949C23.0216 20.947 22.9667 20.8991 22.9398 20.8511L22.9234 20.8652C22.8743 20.8324 22.8872 20.7693 22.8907 20.7284C22.886 20.705 22.8521 20.7179 22.8428 20.7097C22.8451 20.698 22.9258 20.6723 22.9036 20.6232L22.851 20.5975C22.8813 20.5905 22.9106 20.6267 22.9351 20.5917C22.9398 20.5683 22.9386 20.5461 22.9445 20.5356C23.0041 20.5484 23.0333 20.4491 23.0987 20.4689C23.1233 20.5204 23.17 20.4783 23.1969 20.4619L23.1736 20.5028C23.2261 20.4818 23.2624 20.5028 23.3068 20.5204L23.2939 20.5437C23.3465 20.5776 23.398 20.5087 23.4447 20.5145V20.511Z" fill="#F4EC4F"/>
    <path d="M23.3473 20.5029L23.3438 20.5005L23.3776 20.4795C23.3788 20.4935 23.3554 20.4947 23.3461 20.5029H23.3473Z" fill="#F4EC4F"/>
    <path d="M23.0759 20.4428C23.0759 20.4428 23.0654 20.4545 23.0537 20.4498C23.0596 20.4393 23.0654 20.4299 23.0759 20.4428Z" fill="#F4EC4F"/>
    <path d="M21.1433 18.7952C21.1013 18.7882 21.1375 18.7589 21.1387 18.7402C21.1585 18.7531 21.1691 18.7835 21.1433 18.7952Z" fill="#F4EC4F"/>
    <path d="M22.9838 20.5053L22.9803 20.5123L22.9756 20.4971C22.9756 20.4971 22.9826 20.5006 22.9838 20.5053Z" fill="#F4EC4F"/>
    <path d="M23.4354 20.8571C23.4308 20.8501 23.4074 20.8524 23.4214 20.8419C23.4354 20.8407 23.4331 20.8524 23.4354 20.8571Z" fill="#F4EC4F"/>
    <path d="M23.5084 21.0148C23.5084 21.0148 23.5025 21.0253 23.499 21.023L23.5025 21.0078C23.5025 21.0078 23.506 21.009 23.5072 21.0148H23.5084Z" fill="#F4EC4F"/>
    <path d="M23.2527 21.0441L23.2492 21.0511L23.2422 21.0312C23.2492 21.0348 23.2527 21.0359 23.2527 21.0453V21.0441Z" fill="#F4EC4F"/>
    <path d="M23.199 21.335C23.254 21.3397 23.206 21.411 23.2481 21.4437C23.2481 21.4356 23.1862 21.4274 23.1932 21.4648C23.1932 21.4987 23.2329 21.4741 23.2131 21.5034C23.2049 21.4695 23.1488 21.4648 23.1312 21.4741L23.1359 21.5069C23.095 21.4578 23.0377 21.4063 23.0681 21.3421C23.095 21.2906 23.1301 21.3327 23.1651 21.293C23.1453 21.3304 23.2095 21.3093 23.2002 21.335H23.199Z" fill="#F4EC4F"/>
    <path d="M22.443 20.9923C22.4465 21.011 22.4208 21.025 22.4056 21.0133C22.3869 20.9818 22.4231 20.9561 22.443 20.9923Z" fill="#F4EC4F"/>
    <path d="M23.4776 21.5177C23.4753 21.5294 23.4776 21.5516 23.4519 21.5493C23.4285 21.5341 23.4391 21.5142 23.4578 21.5049C23.4636 21.5119 23.4683 21.5177 23.4776 21.5177Z" fill="#F4EC4F"/>
    <path d="M23.0929 22.3606C23.1479 22.3548 23.1712 22.4506 23.2519 22.4378C23.2273 22.4273 23.1864 22.4565 23.1841 22.4249C23.2227 22.4541 23.1397 22.5161 23.1782 22.571C23.121 22.5886 23.0882 22.5956 23.0263 22.633C23.0099 22.6049 22.9772 22.5815 22.941 22.5827L22.9375 22.5979C22.9153 22.5453 22.9211 22.5137 22.8568 22.5021L22.8486 22.5114C22.8627 22.4834 22.8732 22.5056 22.9001 22.4869C22.8837 22.4752 22.9047 22.4413 22.8779 22.4424C22.9012 22.4015 22.9445 22.3688 22.9433 22.3174C22.9749 22.3957 23.0918 22.2811 23.0941 22.3583L23.0929 22.3606Z" fill="#F4EC4F"/>
    <path d="M22.8258 22.2976C22.8118 22.2999 22.7919 22.2953 22.7966 22.2766C22.8036 22.2625 22.82 22.2567 22.834 22.2637C22.8375 22.2742 22.834 22.2894 22.8258 22.2988V22.2976Z" fill="#F4EC4F"/>
    <path d="M23.1953 22.5888L23.1965 22.5771L23.2117 22.583L23.1953 22.5888Z" fill="#F4EC4F"/>
    <path d="M22.9477 22.6605L22.9453 22.6465L22.9512 22.6535L22.9477 22.6605Z" fill="#F4EC4F"/>
    <path d="M23.0997 22.8535C23.0973 22.8781 23.0599 22.8535 23.0518 22.8629C23.0634 22.8559 23.0845 22.8594 23.0997 22.8535Z" fill="#F4EC4F"/>
    <path d="M22.9128 22.8416C22.9268 22.8475 22.9432 22.8335 22.9537 22.8206C22.9362 22.8767 23.0098 22.858 23.039 22.8697C23.0274 22.941 23.0881 22.9971 23.1057 23.0719C23.115 23.0719 23.1139 23.0626 23.1162 23.059C23.0648 23.0964 23.0881 23.1572 23.0718 23.2098C23.0472 23.1701 23.0332 23.2274 23.025 23.2461C23.0624 23.2577 23.0753 23.3057 23.0823 23.329L23.0484 23.2893C23.0203 23.294 22.9888 23.2776 22.9689 23.3033C22.9783 23.3115 22.9841 23.3267 22.9736 23.3396C22.9631 23.3349 22.9584 23.3244 22.9549 23.315C22.914 23.3279 22.9046 23.3583 22.9081 23.3887C22.8602 23.3396 22.7913 23.3396 22.727 23.329L22.7141 23.3571C22.7363 23.3372 22.6977 23.3068 22.6989 23.2858C22.6264 23.2928 22.6498 23.1748 22.5832 23.1677C22.6253 23.1128 22.5867 23.0754 22.5879 23.0158L22.582 23.0181C22.582 22.9118 22.6977 22.8744 22.7281 22.7902C22.7726 22.8265 22.8146 22.7727 22.8649 22.8159L22.907 22.7832C22.9233 22.8031 22.8754 22.8206 22.914 22.8416H22.9128Z" fill="#F4EC4F"/>
    <path d="M21.0857 22.2695L21.0892 22.2719L21.0728 22.3034L21.0693 22.3023L21.0857 22.2695Z" fill="#F4EC4F"/>
    <path d="M21.3472 22.4197C21.3402 22.4255 21.3238 22.422 21.3145 22.4127C21.3191 22.3928 21.3425 22.4092 21.3472 22.4197Z" fill="#F4EC4F"/>
    <path d="M23.1306 23.4262C23.1084 23.4169 23.1224 23.3759 23.1025 23.3643C23.1096 23.3888 23.1434 23.3982 23.1306 23.4262Z" fill="#F4EC4F"/>
    <path d="M23.0264 23.3873L23.0205 23.3721L23.031 23.3767L23.0264 23.3873Z" fill="#F4EC4F"/>
    <path d="M23.3788 23.5651C23.3625 23.592 23.3508 23.571 23.3496 23.5534C23.3601 23.5488 23.3835 23.5453 23.3788 23.5651Z" fill="#F4EC4F"/>
    <path d="M23.1855 23.5154L23.168 23.4873L23.1773 23.4955L23.1855 23.5154Z" fill="#F4EC4F"/>
    <path d="M22.7184 23.8918C22.7348 23.9245 22.7079 23.9467 22.6857 23.9678C22.6635 23.9806 22.6308 23.9456 22.6203 23.9795C22.6132 23.9549 22.5688 23.8941 22.6132 23.8521C22.6518 23.8123 22.7067 23.8439 22.7173 23.8906L22.7184 23.8918Z" fill="#F4EC4F"/>
    <path d="M22.9194 24.0583C22.9498 24.0279 22.951 24.0957 22.9732 24.0536C23.0234 24.0782 23.0059 24.139 23.0737 24.1705C23.0339 24.1717 23.0491 24.2372 23.0795 24.2278C23.0281 24.2711 23.0187 24.3143 22.9638 24.3435C22.9299 24.3307 22.8902 24.2804 22.8586 24.3283C22.8504 24.2956 22.8247 24.243 22.792 24.2594C22.8025 24.1904 22.8025 24.1518 22.8294 24.0864C22.8458 24.0677 22.9241 24.0864 22.9135 24.0303C22.9182 24.0408 22.91 24.0501 22.9194 24.0583Z" fill="#F4EC4F"/>
    <path d="M20.9459 23.4315C20.9296 23.4595 20.9167 23.4677 20.898 23.5028C20.8571 23.5156 20.8548 23.4689 20.815 23.4817C20.7963 23.4233 20.7823 23.3952 20.8244 23.3508C20.8431 23.338 20.8653 23.3473 20.8852 23.3438C20.9354 23.3496 20.9237 23.4069 20.9483 23.4315H20.9459Z" fill="#F4EC4F"/>
    <path d="M23.108 24.306L23.0928 24.292L23.1115 24.299L23.108 24.306Z" fill="#F4EC4F"/>
    <path d="M21.7052 23.9712C21.6971 23.9899 21.6854 23.9981 21.6795 24.0133C21.6386 24.0179 21.6012 24.0238 21.5813 23.9665C21.586 23.9466 21.5673 23.9162 21.593 23.8964C21.6129 23.8917 21.6386 23.8718 21.655 23.8835C21.6784 23.9116 21.7122 23.9349 21.7052 23.9712Z" fill="#F4EC4F"/>
    <path d="M22.0863 24.2041C22.1237 24.2064 22.1377 24.2473 22.1646 24.2672C22.1518 24.3093 22.1599 24.3303 22.1272 24.3607C22.0699 24.4156 22.0559 24.3011 22.001 24.2999C22.0255 24.2625 22.0594 24.2193 22.0898 24.1982L22.0875 24.2053L22.0863 24.2041Z" fill="#F4EC4F"/>
    <path d="M23.9925 24.9339C23.9925 24.9339 23.982 24.9386 23.9785 24.9375L23.989 24.9199C23.9949 24.9258 23.9937 24.9293 23.9925 24.9339Z" fill="#F4EC4F"/>
    <path d="M21.0835 23.953C21.0823 23.988 21.0519 24.0278 21.0169 24.0079C20.9841 24.002 20.9806 23.9693 20.9678 23.9459C20.9701 23.9074 21.0087 23.8887 21.0391 23.8887C21.0578 23.9062 21.0917 23.9214 21.0835 23.953Z" fill="#F4EC4F"/>
    <path d="M22.9832 24.9279C22.9645 24.9209 22.9224 24.9186 22.9283 24.8823C22.9248 24.8473 22.968 24.8554 22.9856 24.8438C22.9832 24.873 23.0171 24.9069 22.9832 24.9279Z" fill="#F4EC4F"/>
    <path d="M22.2245 19.7384C22.2526 19.7536 22.2701 19.777 22.311 19.777C22.3017 19.7934 22.2689 19.7945 22.2841 19.8156C22.3204 19.8705 22.3344 19.9488 22.4162 19.9652C22.3893 19.9652 22.3601 19.936 22.3274 19.9535C22.3192 19.9839 22.3192 20.0154 22.3356 20.0505C22.3157 20.0224 22.304 20.0739 22.2935 20.0774C22.2725 20.1463 22.3496 20.2095 22.3402 20.2656C22.3145 20.2305 22.3134 20.1452 22.2561 20.1417C22.2035 20.1627 22.2105 20.2293 22.1895 20.2574C22.1848 20.2586 22.1895 20.2352 22.186 20.2247C22.1439 20.2422 22.0761 20.22 22.0714 20.2843C21.9861 20.2843 21.8739 20.1837 21.7874 20.1195C21.7757 20.0505 21.7815 19.9769 21.7757 19.9067C21.7663 19.9067 21.7547 19.9044 21.7441 19.9067C21.8038 19.8576 21.84 19.756 21.8306 19.701C21.8599 19.6671 21.8575 19.7337 21.8926 19.7045C21.9265 19.701 21.9347 19.6648 21.9557 19.6449C22.0434 19.6531 22.0889 19.6508 22.1719 19.6426C22.11 19.694 22.2491 19.6987 22.2257 19.7384H22.2245Z" fill="#F4EC4F"/>
    <path d="M24.0667 25.29C24.0574 25.2912 24.0597 25.2959 24.0585 25.2994L24.1813 25.3298L24.1614 25.3403C24.207 25.3871 24.2339 25.4198 24.2806 25.4747C24.3028 25.5752 24.2292 25.6652 24.2397 25.7587C24.2011 25.8008 24.2222 25.7377 24.1871 25.7272C24.1743 25.74 24.1252 25.7377 24.1591 25.7634C24.1228 25.7482 24.0936 25.7611 24.0597 25.7506L24.0527 25.7856C24.0141 25.7622 24.0024 25.7342 23.9498 25.7424C23.944 25.7739 23.9802 25.7763 23.9662 25.809C23.965 25.7342 23.8785 25.7132 23.8715 25.636L23.8423 25.6606C23.8341 25.6243 23.8762 25.5846 23.8318 25.5577L23.8154 25.5694C23.8178 25.4993 23.8552 25.4408 23.8669 25.3707C23.9066 25.2807 23.9908 25.3041 24.0667 25.29Z" fill="#F4EC4F"/>
    <path d="M22.6728 24.8885C22.6716 24.9049 22.6588 24.913 22.6494 24.9177C22.6202 24.9154 22.612 24.8908 22.6202 24.8686C22.6412 24.8464 22.6669 24.8686 22.6728 24.8885Z" fill="#F4EC4F"/>
    <path d="M22.8547 24.9654C22.8583 24.9794 22.8431 24.9736 22.8384 24.9759C22.8232 24.97 22.8244 24.9455 22.8454 24.9443C22.8582 24.9443 22.8536 24.956 22.8547 24.9654Z" fill="#F4EC4F"/>
    <path d="M23.5514 25.4534C23.5292 25.471 23.5175 25.4417 23.5198 25.4219C23.535 25.4266 23.549 25.4359 23.5514 25.4534Z" fill="#F4EC4F"/>
    <path d="M24.2269 25.7051L24.2304 25.7062L24.2223 25.7331L24.2188 25.732L24.2269 25.7051Z" fill="white"/>
    <path d="M23.7773 25.6395L23.8077 25.5869L23.7937 25.629L23.7773 25.6395Z" fill="#F4EC4F"/>
    <path d="M24.3072 25.789C24.3048 25.796 24.2908 25.8007 24.2803 25.7936C24.2838 25.782 24.3013 25.7796 24.3072 25.789Z" fill="#F4EC4F"/>
    <path d="M24.1022 25.8745C24.0754 25.8792 24.1081 25.8967 24.1093 25.9049C24.0578 25.8979 24.1046 25.8546 24.0625 25.8301C24.08 25.8394 24.1057 25.8511 24.1022 25.8745Z" fill="#F4EC4F"/>
    <path d="M25.4264 26.89C25.4252 26.9566 25.5129 26.9835 25.5094 27.035C25.5036 27.035 25.4954 27.0244 25.4884 27.035C25.5491 27.0805 25.4334 27.1168 25.4989 27.1624L25.4638 27.1518C25.4439 27.1729 25.4545 27.1904 25.458 27.2114C25.4498 27.2056 25.451 27.1881 25.4358 27.1857C25.4112 27.2196 25.3715 27.2325 25.3387 27.2418C25.3423 27.2383 25.3423 27.236 25.3423 27.2301C25.2978 27.236 25.2791 27.2395 25.2371 27.2138C25.2242 27.2231 25.2289 27.2383 25.2347 27.2477C25.2476 27.174 25.1132 27.1308 25.1529 27.0314C25.1085 27.0127 25.1552 26.973 25.1564 26.9438C25.1564 26.9064 25.1774 26.8935 25.209 26.8783C25.2838 26.862 25.3645 26.8503 25.4276 26.8912L25.4264 26.89Z" fill="#F4EC4F"/>
    <path d="M22.5843 25.4187C22.5843 25.4444 22.561 25.4491 22.5434 25.4514C22.5189 25.4339 22.5282 25.407 22.5434 25.3906C22.5621 25.3848 22.5762 25.407 22.5855 25.4187H22.5843Z" fill="#F4EC4F"/>
    <path d="M23.2799 25.789L23.2775 25.7972L23.2705 25.7784C23.2799 25.7773 23.2764 25.7843 23.2799 25.7901V25.789Z" fill="#F4EC4F"/>
    <path d="M23.2801 25.8697L23.2754 25.872L23.2824 25.8486C23.2882 25.8545 23.2824 25.865 23.2801 25.8685V25.8697Z" fill="#F4EC4F"/>
    <path d="M23.1551 25.8924L23.1633 25.9462C23.1142 25.917 23.106 25.9403 23.0534 25.9216C23.0616 25.8948 23.0253 25.8644 23.0546 25.8235C23.0627 25.8094 23.1013 25.7966 23.1224 25.8083C23.1387 25.8352 23.21 25.8761 23.1551 25.8924Z" fill="#F4EC4F"/>
    <path d="M25.6162 27.0453L25.6045 27.043H25.6127L25.6162 27.0453Z" fill="#F4EC4F"/>
    <path d="M23.1719 25.8894L23.173 25.8848L23.1847 25.8894H23.1719Z" fill="#F4EC4F"/>
    <path d="M26.1514 26.9645L26.1747 26.9248L26.1572 26.954L26.1514 26.9645Z" fill="#F4EC4F"/>
    <path d="M25.6164 27.1384L25.6035 27.1279L25.6094 27.1303L25.6164 27.1384Z" fill="#F4EC4F"/>
    <path d="M25.667 27.1648C25.6693 27.173 25.6611 27.1718 25.6553 27.1718C25.6588 27.166 25.6588 27.1601 25.667 27.1648Z" fill="#F4EC4F"/>
    <path d="M25.3951 27.2427C25.3799 27.2486 25.3928 27.2334 25.3928 27.2275C25.3986 27.2299 25.3928 27.2369 25.3951 27.2427Z" fill="#F4EC4F"/>
    <path d="M25.2997 27.2806C25.2974 27.2595 25.2635 27.256 25.2705 27.2432C25.2857 27.2525 25.3266 27.2525 25.2997 27.2806Z" fill="#F4EC4F"/>
    <path d="M25.4191 27.2584L25.3945 27.2619V27.249H25.4191V27.2584Z" fill="#F4EC4F"/>
    <path d="M23.074 26.1741C23.0506 26.2139 23.0167 26.1508 23.0448 26.1426C23.0611 26.1437 23.074 26.1566 23.074 26.1741Z" fill="#F4EC4F"/>
    <path d="M23.1463 26.2146C23.1218 26.2274 23.1124 26.1865 23.1346 26.1807C23.144 26.1924 23.1545 26.2005 23.1463 26.2146Z" fill="#F4EC4F"/>
    <path d="M23.0047 26.2376C22.9813 26.247 22.9918 26.2248 22.9906 26.2119C22.9965 26.2224 23.0152 26.2154 23.0047 26.2376Z" fill="#F4EC4F"/>
    <path d="M22.7224 26.342C22.6967 26.3116 22.6441 26.3327 22.6487 26.2812C22.685 26.2894 22.7048 26.3093 22.7224 26.342Z" fill="#F4EC4F"/>
    <path d="M22.6648 26.3488C22.6707 26.3418 22.6379 26.3523 22.652 26.3359L22.6648 26.3488Z" fill="#F4EC4F"/>
    <path d="M22.7013 26.3703L22.6885 26.3574L22.699 26.3656L22.7013 26.3703Z" fill="#F4EC4F"/>
    <path d="M22.6822 26.3943L22.6611 26.3779L22.6833 26.3896L22.6822 26.3943Z" fill="#F4EC4F"/>
    <path d="M22.8036 26.5893C22.7919 26.6033 22.7744 26.5893 22.7861 26.5753C22.7954 26.5741 22.7966 26.5835 22.8036 26.5893Z" fill="#F4EC4F"/>
    <path d="M25.7603 27.7501L25.7697 27.7957C25.7358 27.8237 25.6867 27.7782 25.6797 27.7559C25.6914 27.715 25.7405 27.7372 25.7603 27.7501Z" fill="#F4EC4F"/>
    <path d="M24.6324 27.9805C24.6207 27.9887 24.6102 27.9688 24.5997 27.9536C24.5973 27.9209 24.6593 27.9513 24.6324 27.9805Z" fill="#F4EC4F"/>
    <path d="M25.2458 28.1536L25.2236 28.1162L25.2564 28.1431L25.2458 28.1536Z" fill="#F4EC4F"/>
    <path d="M9.36337 14.4931C11.6227 14.4931 13.4543 13.7343 13.4543 12.7983C13.4543 11.8623 11.6227 11.1035 9.36337 11.1035C7.10402 11.1035 5.27246 11.8623 5.27246 12.7983C5.27246 13.7343 7.10402 14.4931 9.36337 14.4931Z" fill="#DE6F68"/>
    <path d="M7.50969 11.9218C8.89305 11.9218 10.0145 11.6601 10.0145 11.3373C10.0145 11.0146 8.89305 10.7529 7.50969 10.7529C6.12632 10.7529 5.00488 11.0146 5.00488 11.3373C5.00488 11.6601 6.12632 11.9218 7.50969 11.9218Z" fill="#FFE83D"/>
  </g>
  <defs>
    <radialGradient id="paint0_radial_14307_9490" cx="0" cy="0" r="1" gradientUnits="userSpaceOnUse" gradientTransform="translate(17.8378 16.8311) scale(6.06506)">
      <stop stop-color="#C700D4"/>
      <stop offset="0.04" stop-color="#CD13C0"/>
      <stop offset="0.14" stop-color="#DA3A98"/>
      <stop offset="0.25" stop-color="#E55C76"/>
      <stop offset="0.36" stop-color="#EF775A"/>
      <stop offset="0.48" stop-color="#F68C44"/>
      <stop offset="0.61" stop-color="#FB9B35"/>
      <stop offset="0.77" stop-color="#FEA42C"/>
      <stop offset="1" stop-color="#FFA72A"/>
    </radialGradient>
    <radialGradient id="paint1_radial_14307_9490" cx="0" cy="0" r="1" gradientUnits="userSpaceOnUse" gradientTransform="translate(-3.59532 8.81971) scale(18.7481 18.7481)">
      <stop stop-color="#C700D4"/>
      <stop offset="0.12" stop-color="#CF19B9"/>
      <stop offset="0.42" stop-color="#E3557C"/>
      <stop offset="0.68" stop-color="#F2814F"/>
      <stop offset="0.88" stop-color="#FB9C34"/>
      <stop offset="1" stop-color="#FFA72A"/>
    </radialGradient>
    <radialGradient id="paint2_radial_14307_9490" cx="0" cy="0" r="1" gradientUnits="userSpaceOnUse" gradientTransform="translate(13.2266 8.75932) scale(18.2723)">
      <stop offset="0.21" stop-color="#FFA72A"/>
      <stop offset="0.3" stop-color="#FF9937"/>
      <stop offset="0.46" stop-color="#FF775A"/>
      <stop offset="0.67" stop-color="#FF3F95"/>
    </radialGradient>
    <radialGradient id="paint3_radial_14307_9490" cx="0" cy="0" r="1" gradientUnits="userSpaceOnUse" gradientTransform="translate(10.84 12.3005) rotate(9.88) scale(17.0455 8.45566)">
      <stop offset="0.23" stop-color="#FF9E15"/>
      <stop offset="0.44" stop-color="#009DFF"/>
      <stop offset="0.46" stop-color="#0498FF"/>
      <stop offset="0.73" stop-color="#5258FF"/>
    </radialGradient>
    <radialGradient id="paint4_radial_14307_9490" cx="0" cy="0" r="1" gradientUnits="userSpaceOnUse" gradientTransform="translate(25.6105 29.4837) scale(10.627 10.627)">
      <stop stop-color="#F229FF"/>
      <stop offset="0.26" stop-color="#F651BA"/>
      <stop offset="0.52" stop-color="#F9767C"/>
      <stop offset="0.73" stop-color="#FC904F"/>
      <stop offset="0.9" stop-color="#FEA034"/>
      <stop offset="1" stop-color="#FFA72A"/>
    </radialGradient>
    <radialGradient id="paint5_radial_14307_9490" cx="0" cy="0" r="1" gradientUnits="userSpaceOnUse" gradientTransform="translate(28.2239 24.6043) scale(6.01948)">
      <stop stop-color="#FFB700"/>
      <stop offset="0.08" stop-color="#FFB504"/>
      <stop offset="0.66" stop-color="#FFAA1F"/>
      <stop offset="1" stop-color="#FFA72A"/>
    </radialGradient>
    <radialGradient id="paint6_radial_14307_9490" cx="0" cy="0" r="1" gradientUnits="userSpaceOnUse" gradientTransform="translate(23.097 22.3831) scale(15.2018)">
      <stop stop-color="#EF00FF"/>
      <stop offset="0.02" stop-color="#F00CEE"/>
      <stop offset="0.09" stop-color="#F330C1"/>
      <stop offset="0.16" stop-color="#F65098"/>
      <stop offset="0.24" stop-color="#F96B76"/>
      <stop offset="0.32" stop-color="#FB815A"/>
      <stop offset="0.41" stop-color="#FC9144"/>
      <stop offset="0.51" stop-color="#FE9D35"/>
      <stop offset="0.62" stop-color="#FEA42C"/>
      <stop offset="0.78" stop-color="#FFA72A"/>
    </radialGradient>
    <radialGradient id="paint7_radial_14307_9490" cx="0" cy="0" r="1" gradientUnits="userSpaceOnUse" gradientTransform="translate(20.8547 14.8175) scale(1.76143)">
      <stop stop-color="#00B2E9"/>
      <stop offset="0.31" stop-color="#01AFE9"/>
      <stop offset="0.49" stop-color="#06A7EB"/>
      <stop offset="0.64" stop-color="#0F99EE"/>
      <stop offset="0.77" stop-color="#1B85F2"/>
      <stop offset="0.88" stop-color="#2C6BF7"/>
      <stop offset="0.99" stop-color="#3F4CFE"/>
      <stop offset="1" stop-color="#4249FF"/>
    </radialGradient>
    <radialGradient id="paint8_radial_14307_9490" cx="0" cy="0" r="1" gradientUnits="userSpaceOnUse" gradientTransform="translate(20.8267 13.9954) scale(1.97532)">
      <stop stop-color="#FFF915"/>
      <stop offset="1" stop-color="#FFA72A"/>
    </radialGradient>
    <clipPath id="clip0_14307_9490">
      <rect width="36" height="23.6104" fill="white" transform="translate(2 9)"/>
    </clipPath>
  </defs>
</svg>
